<svg xmlns="http://www.w3.org/2000/svg" xml:space="preserve" style="background:0 0" viewBox="230 215 1540 1510">
  <path fill="#020202" d="M114.236 1159c-.047-204.652-.1-408.804-.12-612.956-.002-20.331-.424-40.692.531-60.983.652-13.837 3.087-27.62 5.241-41.347 1.633-10.404 3.208-20.957 6.362-30.953 5.358-16.98 10.886-34.057 18.301-50.194 7.575-16.482 16.543-32.528 26.648-47.593 13.367-19.93 28.266-38.947 46.983-54.31 15.827-12.992 31.698-26.085 48.65-37.5 13.292-8.951 27.953-16.095 42.587-22.766 13.206-6.022 27.046-10.803 40.903-15.198 9.508-3.017 19.44-4.989 29.328-6.453 19.49-2.888 39.057-5.294 58.636-7.51 10.555-1.194 21.217-1.417 31.802-2.381 10.067-.917 20.091-2.29 30.146-3.347a952 952 0 0 1 23.817-2.208c10.436-.832 20.9-1.336 31.322-2.311 17.343-1.623 34.654-3.586 51.993-5.252 9.915-.954 19.866-1.54 29.79-2.408 12.563-1.097 25.117-2.3 37.673-3.48 7.275-.683 14.54-1.507 21.823-2.092 10.432-.84 20.891-1.37 31.314-2.307 10.254-.922 20.477-2.188 30.713-3.3 1.324-.144 2.648-.3 3.975-.401 18.706-1.414 37.419-2.73 56.115-4.256 14.23-1.162 28.437-2.61 42.658-3.892a46536 46536 0 0 1 65.49-5.843c14.71-1.304 29.431-2.468 44.127-3.9 17.182-1.675 34.331-3.69 51.517-5.329 10.415-.993 20.885-1.405 31.306-2.346 10.882-.983 21.734-2.289 32.6-3.452.993-.106 1.985-.24 2.981-.301 11.767-.735 23.558-1.198 35.297-2.244 17.693-1.577 35.338-3.692 53.027-5.32 11.577-1.064 23.184-1.94 34.797-2.421 19.758-.819 39.55-2.032 59.293-1.57 12.107.282 24.22 2.997 36.2 5.289 19.291 3.69 37.342 11.094 54.906 19.707 22.02 10.798 42.164 24.498 61.445 39.58 18.754 14.668 37.716 29.07 56.54 43.65 12.943 10.024 25.767 20.2 38.715 30.218 16.1 12.455 32.323 24.75 48.397 37.238 13.068 10.152 25.948 20.545 38.994 30.724 13.699 10.69 27.527 21.212 41.242 31.88 12.666 9.851 25.257 19.8 37.884 29.703 17.32 13.583 34.67 27.13 51.955 40.756 13.771 10.856 27.445 21.836 41.2 32.711 11.698 9.249 24.067 17.756 35.009 27.821 11.423 10.508 22.548 21.691 31.855 34.046 8.934 11.86 16.336 25.152 22.605 38.654 5.116 11.018 8.116 23.136 11.08 35.01 5.513 22.071 5.929 44.674 5.923 67.312-.073 280.15.004 560.3-.249 840.451-.014 15.888-1.448 31.963-4.141 47.622-5.81 33.795-17.206 65.607-35.658 94.906-16.847 26.75-36.793 50.584-61.271 70.517-22.711 18.493-47.397 33.767-75.5 42.684-12.16 3.859-24.64 6.766-37.07 9.709-17.659 4.182-35.694 5.188-53.768 6.11-15.245.777-30.437 2.56-45.658 3.828-15.887 1.322-31.79 2.46-47.668 3.86-19.022 1.678-38.018 3.644-57.042 5.3-10.921.952-21.884 1.419-32.811 2.316-12.901 1.06-25.782 2.367-38.674 3.53-8.114.731-16.228 1.477-24.352 2.066-11.609.842-23.243 1.361-34.838 2.349-19.507 1.66-38.99 3.618-58.489 5.378-8.6.776-17.213 1.43-25.827 2.04-11.605.823-23.235 1.346-34.822 2.362-18.858 1.654-37.687 3.624-56.532 5.418-7.769.74-15.54 1.462-23.323 2.031-20.064 1.468-40.151 2.656-60.2 4.313-18.692 1.544-37.344 3.573-56.019 5.336-7.769.734-15.545 1.418-23.329 1.973-11.772.84-23.566 1.393-35.327 2.352-11.724.956-23.418 2.282-35.13 3.404-7.775.745-15.55 1.532-23.34 2.095-11.77.85-23.563 1.382-35.326 2.311-11.256.89-22.483 2.132-33.726 3.188-9.097.855-18.188 1.814-27.301 2.466-20.89 1.494-41.889 1.999-62.664 4.435-26.853 3.15-53.733 4.372-80.653 3.243-12.802-.537-25.52-3.412-38.241-5.445-16.689-2.668-32.127-9.123-47.285-16.257-25.119-11.824-45.868-29.551-66.051-48.263-22.02-20.413-44.884-39.912-67.236-59.97-28.767-25.814-57.354-51.83-86.09-77.677-19.494-17.533-39.161-34.872-58.664-52.394-30.964-27.818-62.161-55.386-92.684-83.68-26.055-24.154-46.439-52.779-62.194-84.605-7.863-15.886-14.856-32.188-18.882-49.543-3.94-16.983-8.223-33.931-11.067-51.108-1.945-11.754-2.21-23.87-2.308-35.831-.295-36.163-.142-72.33-.166-108.995M617.72 563.126c.613-.606 1.225-1.212 2.465-2.015 5.365-3.6 10.64-7.344 16.11-10.775 22.1-13.858 45.383-25.143 70.675-31.932 6.994-1.878 14.062-3.478 22.022-5.148 4.316-.316 8.643-.527 12.945-.971 9.906-1.023 19.782-2.377 29.703-3.193 12.092-.994 24.222-1.51 36.327-2.355 9.12-.637 18.23-1.432 27.34-2.217 12.577-1.083 25.14-2.332 37.726-3.31 12.765-.991 25.553-1.696 38.325-2.608 7.963-.568 15.917-1.255 23.87-1.948 11.918-1.04 23.822-2.255 35.749-3.175 19.896-1.535 39.808-2.864 59.709-4.346 7.788-.58 15.567-1.302 23.344-2.024 19.03-1.768 38.047-3.709 57.09-5.316 12.089-1.02 24.221-1.51 36.326-2.35 8.112-.563 16.216-1.255 24.313-2.011 19.007-1.776 37.994-3.774 57.014-5.39 12.576-1.068 25.194-1.625 37.793-2.425 1.495-.095 2.984-.289 4.477-.428 18.2-1.698 36.39-3.512 54.603-5.048 11.763-.991 23.565-1.524 35.343-2.355 8.79-.62 17.574-1.352 26.356-2.099 20.863-1.775 41.722-3.6 62.585-5.382 10.446-.892 20.9-1.678 31.343-2.61 11.094-.99 22.165-2.261 33.27-3.108 12.43-.949 24.893-1.48 37.332-2.343 8.956-.621 17.894-1.503 26.842-2.243 22.515-1.864 45.03-3.728 67.547-5.548 2.087-.168 4.2-.022 6.301-.022l.483-1.273c-2.614-2.072-5.225-4.147-7.842-6.216-11.598-9.165-23.175-18.359-34.803-27.487-16.04-12.591-32.143-25.104-48.176-37.705-13.561-10.66-27.013-21.459-40.604-32.08-13.064-10.21-26.284-20.221-39.363-30.413-16.875-13.15-33.648-26.432-50.52-39.587-15.7-12.242-31.692-24.12-47.16-36.647-24.195-19.594-49.674-36.52-80.111-45.217-16.144-4.613-32.418-7.296-49.049-6.847-15.607.422-31.177 2.155-46.766 3.283-10.78.78-21.568 1.43-32.341 2.29-10.27.819-20.524 1.84-30.786 2.763-11.248 1.013-22.491 2.083-33.747 3.004-10.77.88-21.563 1.47-32.326 2.423-19.85 1.758-39.683 3.732-59.53 5.53-10.097.914-20.22 1.53-30.313 2.484-10.077.952-20.116 2.32-30.197 3.207-11.26.992-22.555 1.58-33.825 2.475-7.619.604-15.219 1.45-22.83 2.158-18.858 1.757-37.714 3.542-56.578 5.228-10.273.918-20.568 1.598-30.844 2.49-20.202 1.752-40.399 3.566-60.596 5.377a7704 7704 0 0 0-30.317 2.8c-17.21 1.612-34.41 3.357-51.633 4.826-18.545 1.58-37.114 2.882-55.668 4.356-8.11.645-16.217 1.352-24.314 2.143-10.9 1.064-21.778 2.371-32.688 3.324-11.262.984-22.554 1.617-33.825 2.503-7.62.6-15.232 1.314-22.837 2.081-10.242 1.033-20.461 2.314-30.714 3.215-10.76.945-21.556 1.474-32.322 2.36-7.443.614-14.86 1.526-22.927 1.996-.984.462-1.969.925-3.778 1.403-2.207.202-4.414.405-7.48.363-9.939 1.813-19.988 3.167-29.796 5.526-29.381 7.065-55.85 20.582-80.358 37.954-28.387 20.12-51.938 44.969-70.367 74.515-12.426 19.92-21.989 41.17-27.819 63.973-2.658 10.398-5.214 20.842-7.219 31.378-1.224 6.435-1.313 13.086-2.06 20.449-.115 6.086-.231 12.173-.947 18.806-.118 1.818-.338 3.636-.34 5.454q-.039 62.717-.033 125.432c.015 198.73.032 397.458.092 596.187 0 2.064.58 4.128.733 7.132.212 14.002.424 28.003.268 42.868.856 21.447 4.626 42.296 11.285 62.772 9.977 30.678 25.551 58.126 48.125 80.926 26.775 27.043 54.718 52.939 82.4 79.07 21.276 20.084 42.898 39.802 64.43 59.613 33.655 30.968 67.362 61.88 101.07 92.79.838.769 1.947 1.242 3.313 2.091v-9.207c.01-122.99.012-245.981.034-368.972.03-164.154.052-328.308.142-492.462.012-21.692 3.213-43.088 8.316-64.074 5.319-21.871 13.73-42.687 24.835-62.354 15.643-27.703 34.926-52.504 58.72-73.688 8.042-7.16 16.341-14.03 24.885-21.276.378-.237.755-.475 1.773-.818m1184.73 10.115c-.267-.471-.535-.943-.72-2.035-.343-.47-.688-.94-1.291-2.122-6.56-13.425-16.137-24.32-28.205-33.98-9.5-5.601-18.61-12.067-28.599-16.586-12.485-5.647-25.79-9.415-39.67-10.063-11.267-.525-22.567-1.26-33.82-.89-11.265.37-22.483 2.063-33.733 3.051-10.273.903-20.566 1.571-30.84 2.467-11.92 1.04-23.82 2.324-35.744 3.302-11.278.926-22.583 1.508-33.863 2.4-8.948.707-17.878 1.641-26.814 2.5-10.092.968-20.172 2.065-30.273 2.92-11.088.939-22.196 1.637-33.292 2.493-7.455.575-14.906 1.21-22.354 1.874-20.192 1.8-40.376 3.696-60.574 5.421-11.258.962-22.548 1.542-33.806 2.504-20.361 1.74-40.707 3.67-61.064 5.46-10.11.888-20.24 1.56-30.348 2.476-10.92.99-21.812 2.289-32.737 3.202-11.765.984-23.56 1.603-35.33 2.523-8.123.635-16.226 1.532-24.34 2.275-11.261 1.03-22.517 2.12-33.79 3.013-11.105.88-22.231 1.49-33.34 2.327-8.785.662-17.557 1.484-26.334 2.245-12.751 1.105-25.495 2.294-38.253 3.306-11.266.894-22.55 1.559-33.82 2.396-8.293.616-16.582 1.287-24.864 2.04-19.025 1.729-38.035 3.635-57.07 5.249-11.764.997-23.567 1.53-35.345 2.38-9.12.658-18.231 1.441-27.34 2.246a4408 4408 0 0 0-35.76 3.296c-13.886 1.342-27.907 1.958-41.613 4.356-18.53 3.242-36.85 7.794-54.257 15.25-20.256 8.677-39.614 19.003-56.586 33.207-19.863 16.624-36.74 35.869-49.285 58.682-8.217 14.943-15.084 30.414-18.554 47.243-1.597 7.748-4.085 15.35-5.17 23.157-1.251 9.004-1.399 18.16-2.276 28.147-.025 1.667-.071 3.333-.072 5-.03 265.156-.06 530.313-.065 795.47 0 10.82.248 21.642.06 33.224.227 2.115.454 4.23.467 7.204.551 4.708 1.102 9.417 1.452 14.805.287 1.11.575 2.219.729 4.098.48 2.487.962 4.973 1.296 8.11.313.785.626 1.57 1.035 3.227 2.123 7.249 3.858 14.64 6.438 21.722 10.745 29.495 30.568 50.78 59.176 63.623 15.66 7.03 32.213 11.456 49.384 11.766 18.256.329 36.539-.547 54.801-1.157 7.466-.249 14.913-1.133 22.36-1.81 10.922-.995 21.826-2.212 32.759-3.06 12.439-.965 24.906-1.56 37.352-2.446 8.287-.59 16.563-1.358 24.836-2.132 11.086-1.037 22.15-2.343 33.25-3.199 20.392-1.571 40.806-2.861 61.205-4.345 7.628-.555 15.243-1.305 22.86-1.999 19.692-1.793 39.375-3.69 59.076-5.377 11.255-.964 22.545-1.527 33.808-2.408 8.608-.673 17.2-1.544 25.796-2.36 10.743-1.02 21.472-2.193 32.225-3.082 11.095-.917 22.221-1.444 33.315-2.37 21.52-1.797 43.027-3.775 64.542-5.635 9.773-.845 19.557-1.562 29.332-2.38q31.791-2.658 63.578-5.366a6793 6793 0 0 0 34.308-3.011c9.766-.883 19.518-1.945 29.294-2.71 11.44-.896 22.916-1.365 34.347-2.36 18.877-1.643 37.718-3.696 56.597-5.324 24.34-2.1 48.704-3.93 73.055-5.917 15.551-1.27 31.107-2.501 46.642-3.948 19.804-1.845 39.683-3.243 59.348-6.088 11.979-1.734 23.822-5.204 35.358-9.012 17.215-5.684 32.703-14.856 47.384-25.515 17.397-12.631 31.941-27.921 43.793-45.75 11.89-17.885 19.665-37.582 24.895-58.82-.026-.167-.052-.334.285-1.14.436-2.493.872-4.986 1.752-8.146.004-.788.008-1.577.285-3.135.439-2.725.877-5.45 1.705-8.835-.118-.47-.236-.94.154-2.178.442-6.387.883-12.775 1.723-20.004-.027-4.41-.053-8.821.132-14.145.024-3.332.07-6.664.07-9.996 0-195.76-.009-391.519 0-587.278.003-69.301.05-138.602.608-208.504.368-9.64 1.013-19.28 1.005-28.92-.004-6.077-.984-12.154-1.321-19.16-.192-4.712-.383-9.425-.274-14.956-.199-1.409-.398-2.818-.376-4.882-.603-2.832-1.205-5.664-1.634-9.232-.2-.712-.4-1.424-.507-2.908-.523-1.737-1.046-3.475-1.402-5.923-.178-.439-.356-.877-.384-1.98-1.885-4.835-3.77-9.671-5.59-15.13a8.4 8.4 0 0 1-1.172-1.948"/>
  <path fill="#d19687" d="M407.096 249.285c2.208-.202 4.415-.405 7.38-.491 1.726-.327 2.692-.769 3.658-1.211 7.429-.778 14.846-1.69 22.289-2.303 10.766-.887 21.562-1.416 32.322-2.361 10.253-.9 20.472-2.182 30.714-3.215 7.605-.767 15.217-1.482 22.837-2.081 11.271-.886 22.563-1.519 33.825-2.503 10.91-.953 21.788-2.26 32.688-3.324 8.097-.79 16.204-1.498 24.314-2.143 18.554-1.474 37.123-2.775 55.668-4.356 17.223-1.469 34.422-3.214 51.633-4.826 10.105-.947 20.21-1.893 30.317-2.8 20.197-1.811 40.394-3.625 60.596-5.378 10.276-.891 20.57-1.571 30.844-2.49 18.864-1.685 37.72-3.47 56.578-5.227 7.611-.709 15.211-1.554 22.83-2.158 11.27-.894 22.565-1.483 33.825-2.475 10.081-.887 20.12-2.255 30.197-3.207 10.092-.953 20.216-1.57 30.313-2.484 19.847-1.798 39.68-3.772 59.53-5.53 10.763-.953 21.557-1.542 32.326-2.423 11.256-.921 22.499-1.991 33.747-3.004 10.262-.924 20.516-1.944 30.786-2.764 10.773-.86 21.562-1.51 32.34-2.29 15.59-1.127 31.16-2.86 46.767-3.282 16.63-.45 32.905 2.234 49.049 6.847 30.437 8.698 55.916 25.623 80.11 45.217 15.469 12.527 31.462 24.405 47.162 36.647 16.871 13.155 33.644 26.436 50.52 39.587 13.078 10.192 26.298 20.202 39.362 30.413 13.59 10.621 27.043 21.42 40.604 32.08 16.033 12.6 32.136 25.114 48.176 37.705 11.628 9.128 23.205 18.322 34.803 27.487 2.617 2.069 5.228 4.144 7.842 6.216l-.483 1.273c-2.1 0-4.214-.146-6.3.022-22.519 1.82-45.033 3.684-67.548 5.548-8.948.74-17.886 1.622-26.842 2.243-12.439.863-24.901 1.394-37.332 2.343-11.105.847-22.176 2.118-33.27 3.108-10.442.932-20.897 1.718-31.343 2.61-20.863 1.781-41.722 3.607-62.585 5.382-8.782.747-17.565 1.478-26.356 2.099-11.778.83-23.58 1.364-35.343 2.355-18.214 1.536-36.404 3.35-54.603 5.048-1.493.14-2.982.333-4.477.428-12.599.8-25.217 1.357-37.793 2.425-19.02 1.616-38.007 3.614-57.014 5.39-8.097.756-16.201 1.448-24.313 2.011-12.105.84-24.237 1.33-36.325 2.35-19.044 1.607-38.06 3.548-57.091 5.316-7.777.722-15.556 1.444-23.344 2.024-19.9 1.482-39.813 2.81-59.71 4.346-11.926.92-23.83 2.135-35.748 3.175-7.953.693-15.907 1.38-23.87 1.948-12.772.912-25.56 1.617-38.325 2.608-12.585.978-25.149 2.227-37.726 3.31-9.11.785-18.22 1.58-27.34 2.217-12.105.845-24.235 1.361-36.327 2.355-9.921.816-19.797 2.17-29.703 3.193-4.302.444-8.63.655-13.573.647-1.279-.93-1.93-1.538-2.521-2.338.06-.194.145-.594.599-.587 3.101-.14 5.762-.172 8.396-.456 10.52-1.138 21.016-2.536 31.552-3.491 10.392-.943 20.827-1.39 31.232-2.193 15.844-1.223 31.675-2.597 47.517-3.84 6.115-.479 12.25-.699 18.367-1.165 16.511-1.26 33.017-2.586 49.525-3.891 8.916-.705 17.832-1.405 26.746-2.136 15.506-1.272 31.003-2.65 46.516-3.824 10.905-.826 21.83-1.388 32.745-2.072.331-.02.66-.087.989-.134 11.063-1.58 22.095-4.042 33.2-4.43 7.535-.263 15.011.072 22.549-1.216 4.95-.846 10.158-.064 15.226-.392 5.59-.362 11.14-1.5 16.727-1.692 9.368-.321 18.349-3.507 28.007-2.478 7.1.757 14.467-.99 21.716-1.602 1.653-.14 3.316-.162 4.968-.313 13.237-1.216 26.47-2.47 39.71-3.657 2.316-.208 4.667-.033 6.984-.24 13.676-1.224 27.342-2.569 41.023-3.752 9.572-.828 19.169-1.377 28.742-2.204 17.971-1.552 35.928-3.276 53.901-4.807 9.907-.844 19.837-1.404 29.752-2.153 16.844-1.274 33.684-2.59 50.525-3.902 8.917-.695 17.835-1.391 26.748-2.134 15.173-1.264 30.341-2.595 45.516-3.838 9.572-.785 19.168-1.303 28.725-2.23 11.176-1.084 22.312-2.57 33.483-3.718 7.868-.81 15.763-1.368 23.65-2.002 8.658-.695 17.32-1.34 25.979-2.024 9.871-.78 19.74-1.604 29.613-2.357 3.912-.298 7.843-.358 11.749-.707 3.227-.287 3.03-2.034 1.323-4.004-.86-.991-1.925-1.823-2.97-2.634-17.784-13.8-35.663-27.48-53.353-41.4-24.621-19.374-49.032-39.016-73.67-58.369-15.248-11.977-30.849-23.504-46.114-35.46-18.378-14.395-36.382-29.274-54.893-43.493-19.02-14.61-38.166-29.095-57.843-42.793-8.928-6.216-19.152-10.646-29.023-15.4-4.71-2.268-9.94-3.484-14.981-5.025-6.112-1.869-12.18-4.542-18.434-5.155-13.516-1.324-27.135-1.672-40.721-2.134-2.64-.09-6 2.425-7.855 1.467-4.679-2.417-9.005-1.013-13.506-.566-9.876.98-19.758 1.908-29.622 2.998-2.35.26-5.243 2.247-6.85 1.422-6.309-3.24-11.453.302-17.007 1.813-1.355.369-2.853.308-4.283.284-4.29-.07-8.92-1.294-12.78-.066-4.754 1.513-9.054 2.145-13.908 1.133-2.646-.552-6.18-.971-8.18.314-4.927 3.165-9.836 1.736-14.873 1.621-3.401-.077-6.833.413-10.224.862-2.527.335-4.993 1.353-7.515 1.476-11.42.558-22.851.897-34.277 1.353-.639.026-1.25.478-1.898.595-3.723.673-7.433 1.514-11.188 1.888-3.56.355-7.454-.629-10.691.473-4.73 1.61-9.277.833-13.917 1.144-8.724.586-17.266 2.907-26.219 2.355-4.239-.262-8.675 2.368-12.886 2.024-5.706-.467-11.072-1.322-16.323 1.918-1.146.707-3.205-.129-4.844-.143-3.962-.036-7.946-.257-11.881.072-3.61.301-7.146 1.548-10.756 1.817-13.854 1.033-27.735 1.698-41.586 2.77-14.853 1.148-29.68 2.628-44.524 3.905-9.078.781-18.174 1.373-27.25 2.19-13.349 1.204-26.681 2.595-40.032 3.786-9.24.825-18.502 1.391-27.745 2.172-14.663 1.238-29.326 2.482-43.973 3.897-3.587.347-7.1 1.412-10.663 2.06-2.523.46-5.07 1.073-7.608 1.081-3.211.01-6.522-1.162-9.614-.685-5.648.872-11.037 3.205-17.007 1.6-1.947-.523-4.757-.471-6.291.59-4.947 3.424-10.082 1.992-15.309 1.747-3.204-.15-6.449.648-9.679.983-3.378.35-6.757.725-10.144.963-3.27.23-6.999-.654-9.732.636-5.681 2.68-11.172 1.95-16.921 1.25-2.026-.246-4.176.466-6.262.787-2.952.454-5.882 1.154-8.85 1.383-4.916.381-9.86.392-14.781.708-3.975.256-7.933.755-11.902 1.103-4.587.402-9.184.692-13.764 1.155-3.02.305-6.004.99-9.026 1.227-10.97.86-21.952 1.6-32.928 2.397-.323.024-.631.224-.957.267-3.155.423-6.303.997-9.473 1.183-2.123.124-4.33-.694-6.411-.422-7.063.921-13.943 2.177-21.235 2.38-18.33.51-36.605 3.037-55.345 4.715-3.747-.055-7.052-.07-10.34-.385z"/>
  <path fill="#a76b61" d="M615.584 564.186c-8.181 7.003-16.48 13.875-24.522 21.034-23.794 21.184-43.077 45.985-58.72 73.688-11.105 19.667-19.516 40.483-24.835 62.354-5.103 20.986-8.304 42.382-8.316 64.074-.09 164.154-.112 328.308-.142 492.462-.022 122.99-.024 245.981-.034 368.972v9.207c-1.366-.85-2.475-1.322-3.313-2.09-33.708-30.911-67.415-61.823-101.07-92.79-21.532-19.812-43.154-39.53-64.43-59.614-27.682-26.131-55.625-52.027-82.4-79.07-22.574-22.8-38.148-50.248-48.125-80.926-6.659-20.476-10.429-41.325-10.847-63.181.946-.405 1.454-.4 2.29-.138.845 5.342 1.302 10.434 1.894 15.51.742 6.37 1.103 12.84 2.518 19.065 2.041 8.982 4.893 17.778 7.379 26.659 5.175 18.487 13.238 35.758 23.896 51.58 11.585 17.199 25.346 32.7 40.515 46.94 12.236 11.487 24.034 23.44 36.178 35.026 8.167 7.791 16.564 15.344 24.922 22.934 17.445 15.843 34.98 31.586 52.387 47.47 16.68 15.218 33.255 30.552 49.856 45.857 19.775 18.232 39.525 36.49 59.296 54.726 1.365 1.258 2.819 2.42 5.037 4.315v-7.179c.002-279.915-.003-559.83.048-839.745.001-7.29.675-14.576.923-21.868.654-19.228 2.668-38.27 7.962-56.833 3.362-11.79 5.975-23.933 10.723-35.156 8.937-21.128 20.142-41.091 33.755-59.734 14.38-19.692 31.073-37.096 49.448-52.955 4.692-4.05 10.143-7.22 15.658-10.788.966.069 1.517.132 2.07.194"/>
  <path fill="#dab3a0" d="M1807.042 1542.008c-4.88 20.871-12.655 40.568-24.545 58.453-11.852 17.829-26.396 33.119-43.793 45.75-14.68 10.66-30.17 19.831-47.384 25.515-11.536 3.808-23.38 7.278-35.358 9.012-19.665 2.845-39.544 4.243-59.348 6.088-15.535 1.447-31.09 2.679-46.642 3.948-24.35 1.987-48.715 3.817-73.055 5.917-18.879 1.628-37.72 3.681-56.597 5.324-11.43.995-22.907 1.464-34.347 2.36-9.776.765-19.528 1.827-29.294 2.71a6793 6793 0 0 1-34.308 3.01 40137 40137 0 0 1-63.578 5.367c-9.775.818-19.559 1.535-29.332 2.38-21.515 1.86-43.021 3.838-64.542 5.635-11.094.926-22.22 1.453-33.315 2.37-10.753.89-21.482 2.062-32.225 3.082-8.596.816-17.188 1.687-25.796 2.36-11.263.881-22.553 1.444-33.808 2.408-19.7 1.688-39.384 3.584-59.076 5.377-7.617.694-15.232 1.444-22.86 1.999-20.4 1.484-40.813 2.774-61.205 4.345-11.1.856-22.164 2.162-33.25 3.2-8.273.773-16.549 1.542-24.836 2.131-12.446.886-24.913 1.481-37.352 2.446-10.933.848-21.837 2.065-32.759 3.06-7.447.677-14.894 1.561-22.36 1.81-18.262.61-36.545 1.486-54.8 1.157-17.172-.31-33.726-4.736-49.385-11.766-28.608-12.844-48.431-34.128-59.176-63.623-2.58-7.082-4.315-14.473-6.105-22.267 1.039-.89 1.745-1.234 2.713-1.295 3.336 10.031 5.652 20.101 9.625 29.47 11.41 26.907 31.212 45.553 58.325 56.36 14.865 5.925 30.43 9.561 46.346 9.713 19.74.188 39.495-1.087 59.24-1.837 6.124-.232 12.245-.715 18.353-1.252 13.515-1.19 27.011-2.604 40.533-3.703 10.902-.886 21.844-1.274 32.743-2.19 13.186-1.11 26.335-2.67 39.52-3.797 13.53-1.157 27.08-2.077 40.627-3.004 7.446-.509 14.929-.576 22.354-1.274 11.173-1.05 22.296-2.618 33.464-3.715 16.119-1.584 32.467-.814 48.358-4.756.628-.155 1.318-.058 1.979-.084 11.375-.454 22.77-.616 34.119-1.44 13.02-.947 25.995-2.518 38.996-3.747 11.2-1.06 22.404-2.086 33.616-2.997 6.938-.564 13.913-.698 20.84-1.358 11.188-1.067 22.333-2.6 33.527-3.584 14.19-1.249 28.415-2.082 42.615-3.214 15.345-1.223 30.675-2.624 46.018-3.871 9.744-.792 19.507-1.347 29.246-2.184 13.846-1.19 27.667-2.666 41.518-3.786 10.896-.881 21.825-1.331 32.729-2.116a900 900 0 0 0 25.23-2.187c11.514-1.155 22.993-2.703 34.522-3.645 12.044-.983 24.131-1.445 36.2-2.138.331-.02.66-.086.992-.114 15.088-1.277 30.172-2.612 45.266-3.811 18.155-1.442 36.32-2.768 54.48-4.146.164-.013.324-.075.488-.095 10.34-1.247 20.651-3.148 31.025-3.587 16.907-.717 33.545-2.715 50.177-5.91 23.755-4.565 45.512-13.527 65.66-26.711 13.66-8.938 26.445-19.035 36.789-31.66 7.723-9.425 14.786-19.51 21.131-29.919 8.65-14.19 13.536-30.05 18.349-45.99 1.165.01 1.942.013 2.718.016"/>
  <path fill="#e0b3a1" d="M571.626 790.077c.627-9.09.775-18.247 2.026-27.25 1.085-7.808 3.573-15.41 5.17-23.158 3.47-16.829 10.337-32.3 18.554-47.243 12.545-22.813 29.422-42.058 49.285-58.682 16.972-14.204 36.33-24.53 56.586-33.207 17.407-7.456 35.727-12.008 54.257-15.25 13.706-2.398 27.727-3.014 41.614-4.356a4408 4408 0 0 1 35.76-3.296c9.108-.805 18.22-1.588 27.339-2.246 11.778-.85 23.58-1.383 35.345-2.38 19.035-1.614 38.045-3.52 57.07-5.25 8.282-.752 16.571-1.423 24.864-2.039 11.27-.837 22.554-1.502 33.82-2.396 12.758-1.012 25.502-2.2 38.253-3.306 8.777-.76 17.55-1.583 26.333-2.245 11.11-.838 22.236-1.447 33.342-2.327 11.272-.893 22.528-1.982 33.788-3.013 8.115-.743 16.218-1.64 24.34-2.275 11.772-.92 23.566-1.54 35.331-2.523 10.925-.913 21.818-2.212 32.737-3.202 10.108-.917 20.238-1.588 30.348-2.477 20.357-1.79 40.703-3.718 61.064-5.459 11.258-.962 22.548-1.542 33.806-2.504 20.198-1.725 40.382-3.621 60.574-5.42 7.448-.665 14.9-1.3 22.354-1.875 11.096-.856 22.204-1.554 33.292-2.493 10.1-.855 20.181-1.952 30.273-2.92 8.936-.859 17.866-1.793 26.814-2.5 11.28-.892 22.585-1.474 33.863-2.4 11.924-.978 23.824-2.262 35.744-3.302 10.274-.896 20.567-1.564 30.84-2.467 11.25-.988 22.468-2.68 33.734-3.05 11.252-.37 22.552.364 33.819.89 13.88.647 27.185 4.415 39.67 10.062 9.99 4.52 19.1 10.985 28.401 17.073-.501.841-.804 1.195-1.448 1.467-6.988-4.092-13.428-8.508-20.326-12.023-12.769-6.508-26.332-11.126-40.655-12.187-15.373-1.14-30.873-2.176-46.233-1.454-18.131.852-36.16 3.766-54.256 5.542a1891 1891 0 0 1-46.453 3.97c-12.426.91-24.894 1.245-37.32 2.163-8.088.598-16.007 2.291-24.246 2.454-6.84.135-13.521 2.316-20.793 1.803-8.733-.617-17.642 1.083-26.46 1.923-12.302 1.172-24.58 2.614-36.89 3.683-10.4.903-20.845 1.295-31.249 2.169-18.31 1.537-36.601 3.304-54.907 4.905-9.243.809-18.505 1.414-27.75 2.2-14.515 1.235-29.02 2.592-43.535 3.806-9.907.83-19.84 1.366-29.738 2.28-11.858 1.096-23.675 2.665-35.541 3.638-11.729.963-23.504 1.354-35.247 2.157-7.925.542-15.83 1.376-23.747 2.06-15.004 1.296-30.007 2.608-45.016 3.855-9.409.782-18.835 1.356-28.238 2.204-13.025 1.173-26.027 2.614-39.056 3.76-13.032 1.145-26.086 2.045-39.127 3.097-7.255.585-14.512 1.171-21.747 1.954-2.035.22-3.974 1.573-5.991 1.666-12.872.592-25.78.596-38.624 1.525-17.33 1.253-34.606 3.232-51.916 4.768-9.739.864-19.505 1.409-29.251 2.19-15.515 1.244-31.025 2.552-46.535 3.858-8.252.694-16.636.741-24.723 2.308-17.55 3.401-35.032 6.96-51.962 13.238-15.83 5.87-30.855 13.126-45.08 21.986-18.59 11.577-34.5 26.244-48.432 43.224-15.299 18.646-26.759 39.403-34.171 62.15-7.163 21.983-10.854 44.738-10.467 68.018.028 1.704-1.083 3.428-1.73 4.69z"/>
  <path fill="#fed0bf" d="M1813.576 678.88c-.027 69.302-.075 138.603-.078 207.904-.009 195.76 0 391.518 0 587.278 0 3.332-.046 6.664-.459 10.35-.667.072-.946-.21-1.19-.95-.234-22.076-.717-43.691-.712-65.306.005-22.28.627-44.56.722-66.84.137-31.798.054-63.598.04-95.396-.02-49.612-.063-99.224-.031-149.305.019-4.88-.027-9.29-.044-14.127.013-2.419-.004-4.411.043-6.849.024-2.537-.017-4.629-.028-7.183.044-13.957.078-27.452.072-40.946-.026-59.81-.062-119.62-.033-179.901.013-5.546-.036-10.621-.054-16.142.013-3.424-.004-6.404.044-9.856.02-19.547-.025-38.62-.043-58.077.009-1.404-.01-2.426.037-3.92.009-22.888-.05-45.303-.071-68.177 0-28.082-.036-55.704.001-83.693.124-.864.174-1.361.481-1.827.429.041.6.051.8.112.028.051.143.033.143.033.191 4.713.382 9.426.234 14.926a545 545 0 0 0-.459 27.076c.058 6.94.38 13.878.585 20.817"/>
  <path fill="#fcd5c1" d="M571.501 790.525c.62 2.922 1.114 6.292 1.626 10.57.04 5.879.062 10.85.014 16.292-.016 21.55.037 42.626.055 64.165-.013 9.093.01 17.725-.041 26.813-.028 3.21.017 5.966.028 9.183-.012 34.762.01 69.063-.039 103.779-.023 1.53.023 2.645.035 4.223-.011 27.43.011 54.398-.036 81.829-.021 3.877.027 7.292.041 11.168-.012 8.097.01 15.732-.04 23.839-.022 5.881.027 11.291.043 17.159-.01 4.76.013 9.064-.037 13.84-.025 7.215.022 13.958.036 21.146-.013 3.424.007 6.403-.043 9.833-.025 2.873.02 5.296.033 8.134-.011 2.085.008 3.753-.04 5.893-.084 51.392-.105 102.312-.107 153.231 0 4.49.127 8.978.163 13.868-.01 1.738.014 3.076-.034 4.81-.021 1.198.03 1.998.05 3.149-.01 1.051.013 1.753-.041 2.914-.028 3.55.02 6.64.033 10.192-.053 24.613-.097 48.766-.081 72.918.03 44.806.093 89.612.066 134.808.209 1.83.495 3.273.777 5.13-.002 1.799.002 3.182-.288 4.573-.88-.022-1.467-.05-2.054-.078-.133-10.821-.38-21.643-.38-32.464.004-265.156.035-530.313.064-795.47 0-1.666.047-3.332.197-5.447"/>
  <path fill="#a76b61" d="M188.281 1234.907c-.31-2.064-.89-4.128-.89-6.192-.06-198.729-.077-397.458-.092-596.187q-.006-62.715.034-125.432c0-1.818.221-3.636.904-5.42.644 2.024.79 4.016.79 6.008.009 240.647.008 481.295-.027 721.942 0 1.76-.469 3.52-.719 5.28m218.386-985.743c.405.522.38.923.256 1.999-3.233 1.39-6.332 2.437-9.505 2.763-15.84 1.623-30.937 6.348-45.568 12.104-11.403 4.486-22.106 10.79-33.016 16.483-18.364 9.584-34.673 22.014-49.351 36.566-6.826 6.767-13.595 13.64-19.834 20.939-6.125 7.166-12.273 14.498-17.104 22.542-7.276 12.116-13.764 24.747-19.908 37.486-3.846 7.97-6.928 16.398-9.474 24.884-2.682 8.943-4.614 18.145-6.327 27.336-1.646 8.826-2.489 17.8-3.932 26.67-.294 1.802-1.693 3.424-2.693 4.808-.555-.786-1-1.251-1.444-1.717.599-6.553.688-13.204 1.912-19.639 2.005-10.536 4.561-20.98 7.22-31.378 5.83-22.803 15.392-44.052 27.818-63.973 18.429-29.546 41.98-54.394 70.367-74.515 24.508-17.372 50.977-30.889 80.358-37.954 9.808-2.359 19.857-3.713 30.225-5.404"/>
  <path fill="#e78f80" d="M188.693 482.431c.519.06.963.526 1.445 1.772.015 67.607-.029 134.434-.024 201.26.003 41.495.08 82.99.05 124.89-.027 1.504.023 2.602.026 4.16-.014 5.451.016 10.441-.028 15.817-.03 1.164.015 1.943.017 3.186-.017 9.786.01 19.108-.029 28.78-.023.818.02 1.287.022 2.204-.01 3.447.023 6.447-.016 9.832-.025 1.164.024 1.943.027 3.184-.064 32.122-.113 63.781-.096 95.44.014 23.659.113 47.318.124 71.26-.015.474.02.663.004 1.313-.074 6.46-.123 12.457-.117 18.455.042 41.654.094 83.308.067 125.37-.02 1.504.033 2.602.04 4.162.164 28.44.376 56.417.588 84.394a60 60 0 0 1-1.78-.036c-.465-14.024-.677-28.025-.81-42.497.328-2.23.797-3.99.797-5.751.035-240.647.036-481.295.028-721.942 0-1.992-.147-3.984-.49-6.282-.15-6.393-.034-12.48.155-18.971"/>
  <path fill="#c07e72" d="M725.782 510.787c.652.607 1.303 1.214 2.12 2.116-6.87 2.023-13.938 3.623-20.932 5.5-25.292 6.79-48.576 18.075-70.674 31.933-5.471 3.431-10.746 7.175-16.855 10.785-1.326-.002-1.907-.013-2.35-.346 13.082-8.524 25.694-17.327 39.075-24.742 10.958-6.074 22.58-11.198 34.373-15.449 11.439-4.123 23.471-6.598 35.243-9.797"/>
  <path fill="#dab3a0" d="M1770.93 537.14a8.7 8.7 0 0 1 1.224-1.22c12.148 8.845 21.724 19.739 27.957 33.573-.94.438-1.55.467-2.303.2-1.025-1.763-1.91-3.228-2.818-4.995-.355-.777-.684-1.251-1.208-1.985a111 111 0 0 1-2.93-4.85c-.337-.462-.599-.676-1.061-1.148-1.763-2.367-3.325-4.478-4.961-6.841-.364-.434-.655-.615-1.163-.81-.219-.014-.653-.064-.68-.367-.373-.756-.722-1.208-1.277-1.767-.465-.296-.65-.54-.852-1.083-.37-.432-.653-.62-1.144-.912-.469-.29-.662-.53-.87-1.073-.368-.435-.655-.62-1.149-.913-.464-.296-.655-.537-.858-1.083-.37-.43-.662-.607-1.242-.931-1.748-1.363-3.206-2.578-4.665-3.794m42.91 141.439c-.469-6.638-.79-13.576-.849-20.516-.072-8.762.07-17.525.357-26.612.779 5.754 1.759 11.83 1.763 17.908.008 9.64-.637 19.28-1.27 29.22"/>
  <path fill="#e0b3a1" d="M1811.813 1483.922c.28.28.559.562 1.12.946.31 4.514.336 8.924-.061 13.932-1.201 1.796-1.978 2.995-2.945 3.832.075-6.255.324-12.15.656-18.039.014-.246.803-.449 1.23-.671"/>
  <path fill="#dab3a0" d="M1810.117 1502.994c.777-1.199 1.554-2.398 2.556-3.773-.217 6.211-.658 12.599-1.584 19.387-.954.387-1.423.374-1.76-.025.35-5.453.57-10.52.788-15.589m-6.559-927.182c1.885 4.836 3.77 9.672 5.27 14.847-1.21.335-2.036.33-2.876-.052-.049-1.387-.083-2.397.018-3.695-.576-1.168-1.288-2.048-2.017-3.277a75 75 0 0 1-.088-2.787c-.618-.85-1.255-1.357-1.91-2.215-.06-1.049-.103-1.746.292-2.54.728-.158 1.02-.22 1.31-.281M573.419 1645.996c-.55-4.708-1.102-9.417-1.159-14.558 1.269-.419 2.043-.404 2.81.07.03 4.742.069 9.025-.037 13.548-.634.473-1.124.707-1.614.94"/>
  <path fill="#e0b3a1" d="M575.078 1631.048c-.775-.014-1.55-.029-2.711-.04-.614-2.112-.84-4.226-.907-6.722.747-.352 1.333-.324 2.243.068.674 2.474 1.025 4.584 1.375 6.694"/>
  <path fill="#dab3a0" d="M1811.333 601.866c.602 2.832 1.204 5.664 1.455 8.926-1.173.683-1.994.936-2.83.752-.07-2.734-.127-5.033-.086-7.688.551-.901 1.006-1.446 1.46-1.99m-.302 919.179c-.439 2.725-.877 5.45-1.717 8.504-.778-.033-1.156-.396-1.488-1.17.055-2.376.064-4.343.352-6.334a44 44 0 0 0 2.853-1m-2.046 11.976c-.435 2.494-.871 4.987-1.8 7.608-.797-.529-1.1-1.185-1.357-2.243.08-2.058.113-3.712.448-5.369 1.104 0 1.907.002 2.71.004"/>
  <path fill="#e0b3a1" d="M1809.972 611.98c.822-.252 1.643-.505 2.706-.86.44 1.306.639 2.715.688 4.533-.15.41-.265.427-.386.22-.402-.135-.683-.06-.964.013-.05.497-.1.994-.56 1.726-.768-1.72-1.126-3.676-1.484-5.632"/>
  <path fill="#dab3a0" d="M575.39 1658.234c-.481-2.487-.962-4.973-1.007-7.848 1.173-.382 1.911-.377 2.657.046.057 2.068.106 3.72.049 5.756-.638.939-1.169 1.492-1.7 2.046"/>
  <path fill="#e0b3a1" d="M577.032 1650.015a440 440 0 0 0-2.582-.014c-.657-1.106-.945-2.216-1.132-3.665.59-.573 1.08-.807 2.053-1.136.875 1.541 1.268 3.178 1.66 4.815"/>
  <path fill="#dab3a0" d="M1809.43 593.01c.523 1.737 1.046 3.475 1.146 5.6-1.179.365-1.934.341-2.675-.077-.031-1.704-.076-3.012.015-4.552.595-.478 1.054-.724 1.513-.97"/>
  <path fill="#e0b3a1" d="M1807.887 598.928c.755.023 1.51.047 2.643.069.577.709.777 1.42.89 2.5-.542.913-.997 1.458-1.847 2.23-.825-1.45-1.256-3.124-1.686-4.8m1.32 933.761c-1.025.33-1.828.329-2.932-.043.3-1.531.902-2.693 1.504-3.854.378.362.756.725 1.397 1.143.26.844.257 1.633.03 2.754m2.018-11.973c-1.052.655-1.91.98-3.273 1.092.08-1.088.663-1.963 1.247-2.839.468.014.937.027 1.636.024.35.454.467.923.39 1.723M575.316 1658.56c.604-.88 1.135-1.433 2.096-2.23.837 1.056 1.244 2.357 1.65 3.658-.706.344-1.412.688-2.499 1.142-.694-.676-1.007-1.46-1.247-2.57M1809.513 592.654c-.543.603-1.002.849-1.906 1.192-.843-.888-1.242-1.875-1.641-2.86.826.004 1.652.008 2.788.005.487.43.665.87.759 1.663m-3.732 946.135c.303.655.606 1.311 1.221 2.159.338.359.364.526.215.876-.951.18-1.728.178-2.87-.175.235-1.187.834-2.024 1.434-2.86"/>
  <path fill="#a76b61" d="M417.815 247.429c-.647.596-1.613 1.038-2.926 1.357.638-.586 1.623-1.049 2.926-1.357"/>
  <path fill="#e0b3a1" d="M1797.949 569.99c.611-.03 1.223-.059 2.292-.14.801.416 1.146.886.998 1.74-.79.44-1.09.493-1.69.456-.734-.747-1.167-1.402-1.6-2.057m5.641 5.511c-.324.373-.615.435-1.615.513-1.135-.331-1.561-.68-1.664-1.17a160 160 0 0 0 2.23-1.063c.36.47.72.94 1.05 1.72"/>
  <path fill="#dab3a0" d="M1802.496 573.51c-.59.578-1.226.885-2.202.977-.374-.927-.409-1.638-.443-2.35.299-.054.598-.108 1.346-.236.718.397.986.869 1.299 1.61"/>
  <path fill="#c07e72" d="M615.766 564.065c-.734.059-1.285-.004-2.126-.388.919-.835 2.126-1.35 3.357-1.51.043.592.063.829.083 1.065-.378.237-.755.475-1.314.833"/>
  <path fill="#a76b61" d="M617.4 563.18c-.34-.184-.36-.421-.411-1.19-.032-.533-.037-.894-.037-.894.582.012 1.163.023 2.175.123-.182.695-.794 1.301-1.727 1.96"/>
  <path fill="#925f58" d="M617.09 560.775c-.138.321-.133.682-.125.86-1.2.692-2.406 1.207-3.738 2.036-5.227 3.889-10.678 7.06-15.37 11.109-18.375 15.859-35.067 33.263-49.448 52.955-13.613 18.643-24.818 38.606-33.755 59.734-4.748 11.223-7.36 23.367-10.723 35.156-5.294 18.562-7.308 37.605-7.962 56.833-.248 7.292-.922 14.579-.923 21.868-.05 279.915-.046 559.83-.048 839.745v7.18c-2.218-1.896-3.672-3.058-5.037-4.316-19.771-18.236-39.521-36.494-59.296-54.726-16.6-15.305-33.176-30.639-49.856-45.858-17.407-15.883-34.942-31.626-52.387-47.469-8.358-7.59-16.755-15.143-24.922-22.934-12.144-11.587-23.942-23.54-36.178-35.026-15.169-14.24-28.93-29.741-40.515-46.94-10.658-15.822-18.72-33.093-23.896-51.58-2.486-8.88-5.338-17.677-7.38-26.659-1.414-6.224-1.775-12.694-2.517-19.064-.592-5.077-1.05-10.169-1.894-15.511-.54-28.235-.75-56.212-.61-84.75.146-1.865-.061-3.168-.269-4.472-.049-41.654-.101-83.308-.143-124.962-.006-5.998.043-11.996.326-18.497.474-.665.688-.827.902-.99l-1.064-.564c-.062-23.66-.161-47.318-.175-70.977-.017-31.659.032-63.318.392-95.522.143-1.526-.054-2.507-.25-3.488-.034-3-.066-5.999.205-9.51.13-1.172-.044-1.83-.217-2.489-.028-9.323-.055-18.645.258-28.513.147-1.526-.045-2.507-.238-3.49-.03-4.99-.061-9.98.26-15.528.15-1.861-.054-3.165-.258-4.47-.044-41.494-.122-82.988-.125-124.482-.005-66.827.039-133.654.135-200.94.962-2.165 2.361-3.787 2.655-5.59 1.443-8.869 2.286-17.843 3.932-26.67 1.713-9.19 3.645-18.392 6.327-27.335 2.546-8.486 5.628-16.913 9.474-24.884 6.144-12.74 12.632-25.37 19.908-37.486 4.83-8.044 10.98-15.376 17.104-22.542 6.24-7.3 13.008-14.172 19.834-20.94 14.678-14.55 30.987-26.981 49.351-36.565 10.91-5.694 21.613-11.997 33.016-16.483 14.631-5.756 29.728-10.48 45.568-12.104 3.173-.326 6.272-1.373 9.489-2.462 3.387-.36 6.692-.346 10.545.025 1.608 1.62 2.503 3.085 3.754 4.118 11.38 9.398 22.85 18.69 34.242 28.074 13.055 10.752 26.102 21.517 39.075 32.368 15.268 12.769 30.39 25.711 45.691 38.44 14.405 11.982 29.018 23.714 43.433 35.684 16.844 13.989 33.583 28.104 50.349 42.187a28428 28428 0 0 1 49.482 41.652c14.189 11.974 28.341 23.991 42.51 35.99 0 0-.084.399-.145.593-11.833 3.392-23.865 5.867-35.304 9.99-11.794 4.251-23.415 9.375-34.373 15.449-13.38 7.415-25.993 16.218-39.076 24.742"/>
  <path fill="#c07e72" d="M726.442 510.007c-14.623-12.005-28.775-24.022-42.964-35.996a28428 28428 0 0 0-49.482-41.652c-16.766-14.083-33.505-28.198-50.349-42.187-14.415-11.97-29.028-23.702-43.433-35.684-15.3-12.729-30.423-25.671-45.69-38.44-12.974-10.851-26.02-21.616-39.076-32.368-11.393-9.384-22.861-18.676-34.242-28.074-1.251-1.033-2.146-2.497-3.311-4.078 18.191-2.034 36.465-4.56 54.796-5.071 7.292-.203 14.172-1.459 21.235-2.38 2.081-.272 4.288.546 6.41.422 3.171-.186 6.319-.76 9.474-1.183.326-.043.634-.243.957-.267 10.976-.797 21.957-1.537 32.928-2.397 3.022-.236 6.007-.922 9.026-1.227 4.58-.463 9.177-.753 13.764-1.155 3.969-.348 7.927-.847 11.902-1.103 4.922-.316 9.865-.327 14.78-.708 2.969-.23 5.899-.929 8.851-1.383 2.086-.32 4.236-1.033 6.262-.786 5.749.7 11.24 1.429 16.921-1.251 2.733-1.29 6.463-.407 9.732-.636 3.387-.238 6.766-.612 10.144-.963 3.23-.335 6.475-1.133 9.68-.983 5.226.245 10.36 1.677 15.308-1.746 1.534-1.062 4.344-1.114 6.291-.59 5.97 1.604 11.359-.729 17.007-1.6 3.092-.478 6.403.694 9.614.684 2.538-.008 5.085-.62 7.608-1.08 3.562-.65 7.076-1.714 10.663-2.06 14.647-1.416 29.31-2.66 43.973-3.898 9.243-.78 18.506-1.347 27.745-2.172 13.35-1.19 26.683-2.582 40.033-3.785 9.075-.818 18.17-1.41 27.25-2.19 14.843-1.278 29.67-2.758 44.523-3.907 13.85-1.07 27.732-1.736 41.586-2.769 3.61-.269 7.145-1.516 10.756-1.817 3.935-.33 7.919-.108 11.881-.072 1.64.014 3.698.85 4.844.143 5.251-3.24 10.617-2.385 16.323-1.918 4.21.344 8.647-2.286 12.886-2.024 8.953.552 17.495-1.77 26.219-2.355 4.64-.31 9.186.466 13.917-1.144 3.237-1.102 7.13-.118 10.69-.473 3.756-.374 7.466-1.215 11.19-1.888.648-.117 1.258-.57 1.897-.595 11.426-.456 22.856-.795 34.277-1.353 2.522-.123 4.988-1.14 7.515-1.476 3.39-.449 6.823-.94 10.224-.862 5.037.115 9.946 1.544 14.873-1.621 2-1.285 5.534-.866 8.18-.314 4.854 1.012 9.154.38 13.909-1.133 3.86-1.228 8.49-.004 12.779.066 1.43.024 2.928.085 4.283-.284 5.554-1.511 10.698-5.054 17.007-1.813 1.607.825 4.5-1.162 6.85-1.422 9.864-1.09 19.746-2.018 29.622-2.998 4.501-.447 8.827-1.85 13.506.566 1.855.958 5.215-1.556 7.855-1.467 13.586.462 27.205.81 40.721 2.134 6.255.613 12.322 3.286 18.434 5.155 5.041 1.54 10.272 2.757 14.981 5.026 9.87 4.753 20.095 9.183 29.023 15.399 19.677 13.698 38.823 28.183 57.843 42.793 18.511 14.22 36.515 29.098 54.893 43.493 15.265 11.956 30.866 23.483 46.114 35.46 24.638 19.353 49.049 38.995 73.67 58.369 17.69 13.92 35.569 27.6 53.353 41.4 1.045.811 2.11 1.643 2.97 2.634 1.708 1.97 1.904 3.717-1.323 4.004-3.906.349-7.837.41-11.749.707-9.874.753-19.742 1.578-29.613 2.357-8.66.684-17.321 1.329-25.98 2.024-7.886.634-15.78 1.193-23.65 2.002-11.17 1.149-22.306 2.634-33.482 3.718-9.557.927-19.153 1.445-28.725 2.23-15.175 1.243-30.343 2.574-45.516 3.838-8.913.743-17.83 1.44-26.748 2.134-16.84 1.312-33.681 2.628-50.525 3.902-9.915.75-19.845 1.31-29.752 2.153-17.973 1.53-35.93 3.255-53.901 4.807-9.573.827-19.17 1.376-28.742 2.204-13.68 1.183-27.347 2.528-41.023 3.752-2.317.207-4.668.032-6.984.24-13.24 1.186-26.473 2.441-39.71 3.657-1.652.151-3.315.173-4.968.313-7.25.613-14.615 2.359-21.716 1.602-9.658-1.029-18.639 2.157-28.007 2.478-5.588.192-11.137 1.33-16.727 1.692-5.068.328-10.275-.454-15.226.392-7.538 1.288-15.014.953-22.549 1.216-11.105.388-22.137 2.85-33.2 4.43-.33.047-.658.114-.99.134-10.915.684-21.84 1.246-32.744 2.072-15.513 1.175-31.01 2.552-46.516 3.824-8.914.731-17.83 1.43-26.746 2.136-16.508 1.305-33.014 2.63-49.525 3.89-6.116.467-12.252.687-18.367 1.167-15.842 1.242-31.673 2.616-47.517 3.839-10.405.803-20.84 1.25-31.232 2.193-10.536.955-21.032 2.353-31.552 3.49-2.634.285-5.295.317-8.396.457"/>
  <path fill="#db9788" d="M1799.55 572.046c.335.803.37 1.514.42 2.583.444.705.87 1.053 1.569 1.481.313.777.355 1.474.457 2.84.657 1.193 1.254 1.717 1.851 2.242.03.698.06 1.396.112 2.793.64 1.538 1.257 2.377 1.875 3.216l.118 3.406c.413 1.364.812 2.35 1.52 3.471.353 1.443.398 2.751.429 4.455.416 2.07.847 3.745 1.576 5.55.354 2.428.41 4.727.481 7.461.372 2.392.73 4.347 1.424 6.435.373 27.754.409 55.376.049 83.602-.735 1.646-1.367 2.685-1.37 3.727-.058 20.397-.072 40.794.034 61.19.006 1.2 1.108 2.393 1.7 3.588.02 1.022.039 2.044-.337 3.582-.742 1.552-1.39 2.586-1.393 3.623-.063 17.07-.08 34.14.032 51.21.008 1.197 1.111 2.388 1.705 3.583.018 2.98.035 5.959-.343 9.518-.743 4.874-1.213 9.164-1.344 13.463-.03.987 1.103 2.01 1.7 3.015.034 59.81.07 119.62.096 179.43.006 13.494-.028 26.989-.42 41.062-1.997 3.073-2.546 5.462.312 7.513.017 1.992.034 3.984-.343 6.537-1.647 5.273-3.067 9.996.343 14.462.033 49.612.075 99.224.097 148.836.013 31.798.096 63.598-.04 95.396-.096 22.28-.718 44.56-.723 66.84-.005 21.615.478 43.23.711 65.305-.462.683-1.251.886-1.265 1.132-.332 5.89-.581 11.784-.656 18.04-.029 5.43-.248 10.497-.598 15.95-.715 1.26-1.298 2.136-1.656 3.249.216 2.204.207 4.17.152 6.548-.648 1.572-1.25 2.734-1.852 4.267a242 242 0 0 1-.146 5.739c-.646 1.24-1.245 2.076-1.868 3.256-4.448 16.29-9.334 32.15-17.984 46.34-6.345 10.409-13.408 20.494-21.131 29.92-10.344 12.624-23.13 22.72-36.789 31.659-20.148 13.184-41.905 22.146-65.66 26.71-16.632 3.196-33.27 5.194-50.177 5.91-10.374.44-20.686 2.341-31.025 3.588-.164.02-.324.082-.489.095-18.16 1.378-36.324 2.704-54.479 4.146-15.094 1.199-30.178 2.534-45.266 3.81-.332.029-.661.095-.993.115-12.068.693-24.155 1.155-36.199 2.138-11.53.942-23.008 2.49-34.522 3.645a900 900 0 0 1-25.23 2.187c-10.904.785-21.833 1.235-32.729 2.116-13.85 1.12-27.672 2.596-41.518 3.786-9.739.837-19.502 1.392-29.246 2.184-15.343 1.247-30.673 2.648-46.018 3.871-14.2 1.132-28.426 1.965-42.615 3.214-11.194.985-22.339 2.517-33.527 3.584-6.927.66-13.902.794-20.84 1.358-11.212.911-22.416 1.938-33.616 2.997-13.001 1.229-25.975 2.8-38.996 3.746-11.348.825-22.744.987-34.12 1.44-.66.027-1.35-.07-1.978.085-15.89 3.942-32.24 3.172-48.358 4.756-11.168 1.097-22.291 2.665-33.464 3.715-7.425.698-14.908.765-22.354 1.274-13.548.927-27.098 1.847-40.627 3.004-13.185 1.127-26.334 2.688-39.52 3.796-10.899.917-21.841 1.305-32.743 2.191-13.522 1.099-27.018 2.513-40.533 3.703-6.108.537-12.229 1.02-18.354 1.252-19.744.75-39.5 2.025-59.239 1.837-15.915-.152-31.48-3.788-46.346-9.713-27.113-10.807-46.915-29.453-58.325-56.36-3.973-9.369-6.29-19.439-9.625-29.47-.668-1.584-1.075-2.885-1.805-4.327-.373-1.793-.422-3.444-.479-5.512-.401-2.054-.794-3.691-1.524-5.472-.377-4.427-.416-8.71-.447-13.452-.341-2.57-.692-4.68-1.072-7.16-.033-1.755-.037-3.138.242-5.162-.138-2.192-.557-3.744-.977-5.295-.05-44.806-.114-89.612-.143-134.418-.016-24.152.028-48.305.434-73.053 1.714-4.013 2.868-7.417-.31-10.517-.022-.701-.045-1.403.262-2.543.128-1.445-.073-2.45-.275-3.456-.024-1.338-.047-2.676.326-4.552.74-1.746 1.383-2.953 1.384-4.16.05-53.059.057-106.118-.03-159.176-.002-1.367-1.113-2.731-1.706-4.097-.02-1.668-.04-3.336.322-5.543 1.767-3.32 2.85-6.078-.313-8.462-.02-2.98-.04-5.959.337-9.52.581-7.312.777-14.043.894-20.775.004-.229-.796-.47-1.221-.707-.023-4.303-.046-8.607.328-13.504.728-5.54 1.13-10.482 1.309-15.433.024-.666-1.07-1.373-1.645-2.06-.022-7.636-.043-15.27.329-23.5 1.658-4.33 2.87-8.061-.331-11.5-.023-26.967-.045-53.936.28-81.463.14-1.886-.07-3.213-.28-4.54-.02-34.3-.042-68.602.324-103.492 1.704-3.685 2.756-6.759-.309-9.51-.022-8.633-.045-17.265.33-26.497.738-1.639 1.374-2.676 1.377-3.716.06-19.063.075-38.127-.033-57.19-.007-1.2-1.102-2.395-1.691-3.592-.022-4.97-.044-9.941-.018-15.368.63-2.171 1.741-3.895 1.713-5.6-.387-23.279 3.304-46.034 10.467-68.017 7.412-22.747 18.872-43.504 34.17-62.15 13.933-16.98 29.844-31.647 48.432-43.224 14.226-8.86 29.25-16.116 45.081-21.986 16.93-6.277 34.413-9.837 51.962-13.238 8.087-1.567 16.47-1.614 24.723-2.308 15.51-1.306 31.02-2.614 46.535-3.858 9.746-.781 19.512-1.326 29.25-2.19 17.311-1.536 34.587-3.515 51.917-4.768 12.843-.93 25.752-.933 38.624-1.525 2.017-.093 3.956-1.446 5.99-1.666 7.236-.783 14.493-1.369 21.748-1.954 13.041-1.052 26.095-1.952 39.127-3.098 13.029-1.145 26.03-2.586 39.056-3.76 9.403-.847 18.83-1.421 28.238-2.203 15.009-1.247 30.012-2.56 45.016-3.855 7.916-.684 15.822-1.518 23.747-2.06 11.743-.803 23.518-1.194 35.247-2.157 11.866-.973 23.683-2.542 35.541-3.638 9.899-.914 19.831-1.45 29.738-2.28 14.516-1.214 29.02-2.57 43.534-3.805 9.246-.787 18.508-1.392 27.751-2.2 18.306-1.602 36.597-3.369 54.907-4.906 10.404-.874 20.848-1.266 31.249-2.17 12.31-1.068 24.588-2.51 36.89-3.682 8.818-.84 17.727-2.54 26.46-1.923 7.272.513 13.954-1.668 20.793-1.803 8.239-.163 16.158-1.856 24.246-2.454 12.426-.918 24.894-1.253 37.32-2.164a1891 1891 0 0 0 46.453-3.97c18.097-1.775 36.125-4.69 54.256-5.541 15.36-.722 30.86.315 46.233 1.454 14.323 1.06 27.886 5.68 40.655 12.187 6.898 3.515 13.338 7.931 20.326 12.023 1.8 1.299 3.26 2.514 5.138 4.088.63.62.887.824 1.19.972.124.294.315.535.905 1.047.59.532.847.74 1.105.947.126.294.32.533.91 1.042.59.528.85.733 1.11.938.113.299.3.542.808 1.132.587.86.923 1.317 1.26 1.776 0 0 .434.05.782.275.554.492.808.7 1.108.852 1.562 2.11 3.124 4.22 4.978 6.825.542.716.793.938 1.044 1.16.887 1.447 1.774 2.895 2.876 4.906.548 1.036.88 1.51 1.213 1.982.884 1.465 1.768 2.93 2.793 4.692.574.952 1.007 1.607 1.742 2.354M892.874 1559.99c3.737-.654 7.474-1.309 12.126-1.97 3.994-.006 7.989-.014 12.9-.018 5.715-.67 11.431-1.34 18.027-1.993 2.352-.004 4.704-.007 7.965-.004 5.717-.67 11.433-1.338 17.88-2.005.732 0 1.464 0 3.087.01 5.338-.714 10.88-.774 15.945-2.361 3.75-1.175 6.875-4.338 10.95-6.702 2.08-1.938 4.158-3.876 6.747-6.246a21 21 0 0 1 .756-2.323c.245-.414.49-.828 1.22-1.644.212-.584.424-1.167 1.13-2.224.136-1.13.273-2.26.938-3.98.162-1.868.323-3.735.48-6.518.001-17.31.002-34.621-.002-52.884v-17.117c0-7.327 0-14.653-.01-22.863.004-2.062.008-4.123.01-7.113.002-4.662.004-9.324-.004-14.93-.005-18.813-.018-37.625-.014-56.438.015-97.225.035-194.45.646-291.353 2.457 3.737 4.895 7.486 7.373 11.208 8.188 12.302 16.535 24.502 24.551 36.915 9.324 14.437 18.27 29.117 27.552 43.582 8.928 13.914 18.189 27.615 27.096 41.542 14.554 22.755 28.89 45.649 43.41 68.425 12.465 19.552 25.194 38.935 37.557 58.55 12.689 20.13 24.995 40.502 37.623 60.671 8.521 13.609 17.424 26.978 25.955 40.58 17.123 27.303 33.81 54.886 51.362 81.908 4.384 6.749 10.856 12.47 17.285 17.488 10.81 8.438 23.957 7.514 36.65 6.646 11.84-.81 23.613-2.585 35.432-3.774 5.679-.571 11.396-.743 17.092-1.152 3.294-.237 6.735-1.348 9.834-.716 5.276 1.077 10.006-.343 15.07-1.03 12.27-1.666 24.692-2.242 37.062-3.133 10.904-.786 21.826-1.331 32.73-2.114 17.332-1.245 34.672-2.414 51.975-3.984 8.868-.805 17.975-1.504 25.561-6.953 3.05-2.19 7.368-3.685 7.762-9.07.479-.968.958-1.936 1.413-2.908 0 0 .007.024.6-.396 1.782-6.737 4.774-13.413 5.116-20.222.985-19.586 1.106-39.225 1.189-58.845.154-36.239.038-72.479.035-108.718 0-12.752.119-25.506-.034-38.257-.162-13.624-.68-27.244-.858-40.868-.15-11.491.011-22.986-.041-34.48-.3-65.928-.631-131.856-.931-197.785a4023 4023 0 0 1-.004-35.086c.275-67.262.635-134.523.814-201.785.042-15.902 1.37-31.922-2.972-48.329-.61-1.867-1.12-3.773-1.845-5.594-3.13-7.864-10.258-11.1-17.247-15.4-2.604-.064-5.207-.13-8.712-.208-2.705.007-5.41.013-8.668-.572-3.207.057-6.79-2.3-10.26 1.532-4.395.353-8.79.706-13.728.473-2.912-.09-6.183-2.185-9.251 1.632-5.735.319-11.47.637-17.514.503-.569.396-1.138.793-2.503 1.284-1.068.023-2.137.046-3.537-.359-.547.435-1.093.87-2.572 1.389-5.36.04-10.72.08-16.46-.386-.872.44-1.745.88-3.472 1.399-8.709.374-17.418.748-26.99 1.097-14.428 1.327-28.856 2.658-43.285 3.979-4.102.375-8.23.555-12.306 1.112-12.835 1.755-22.456 7.982-27.463 20.33-1.144 2.822-2.054 5.737-3.62 9.045.174 1.502.348 3.004.52 5.363-.242 1.598-.607 3.189-.699 4.795-.195 3.44-.25 6.887-.333 11.249-.026 3.358-.052 6.717-.728 10.245.22 1.3.438 2.601.7 4.832-.01 5.67-.02 11.339-.787 17.242-.271 5.263-.57 10.525-.743 15.792-.01.324.983.682 1.543 1.763-.01.739-.018 1.478-.772 2.432-1.445 3.404-2.702 6.793.778 10.76-.007 14.677-.014 29.353-.586 44.13l-.9.958c.486.326.972.652 1.488 1.828-.014 1.703-.028 3.405-.794 5.33-1.389 4.045-2.765 8.09.793 12.612-.01 1.057-.02 2.113-.733 3.353-1.555 2.167-2.456 4.255.74 6.786-.016 21.342-.033 42.683-.609 64.131l-.885.96c.481.328.962.656 1.478 1.916-.012 40.33-.007 80.66-.041 120.989-.025 29.994-.1 59.989-.799 89.877-5.223-7.646-10.7-15.132-15.62-22.97-11.854-18.885-23.348-37.996-35.183-56.894-7.197-11.493-14.868-22.687-22.125-34.143-9.655-15.242-18.98-30.694-28.69-45.9-14.707-23.033-29.67-45.902-44.437-68.898-11.01-17.146-21.809-34.43-32.847-51.558-6.174-9.58-12.806-18.867-18.943-28.47-11.76-18.4-23.25-36.97-34.97-55.394-10.474-16.466-21.134-32.812-31.655-49.247-5.392-8.422-11.98-15.39-21.714-18.767-3.195-1.108-6.33-3.165-9.548-3.287-11.405-.431-22.835-.238-34.255-.218-1.97.003-3.966.178-5.906.52-4.022.709-8.014 2.234-12.02 2.244-6.922.018-13.843-.872-20.527 1.75-.605.237-1.294.309-1.951.36-17.15 1.346-34.3 2.689-51.45 4.009-8.915.686-17.83 1.374-26.75 1.978-15.538 1.053-31.082 2.027-46.621 3.063-10.882.726-21.934.92-32.174 5.106-11.737 4.799-20.554 12.562-22.742 26.634-.02.68-.042 1.358-.66 2.506-.443.865-1.194 1.7-1.282 2.6-1.062 10.864-2.37 21.72-2.892 32.612-.34 7.096.764 14.247.778 21.374.39 197.723.733 395.447 1.06 593.17.06 35.32-.215 70.644.151 105.961.123 11.86 3.643 22.628 16.604 28.036.718.01 1.436.02 2.561.512.598.14 1.195.28 2.555.601 2.357.303 4.714.606 7.574 1.422a126 126 0 0 1 5.543-.517c3.008-.01 6.016-.02 9.935-.025 4.724-.658 9.448-1.317 15.096-1.977 5-.016 10-.032 15.875-.035 3.734-.651 7.468-1.303 12.113-1.96 3.669-.013 7.338-.025 11.883-.03"/>
  <path fill="#e0b3a1" d="M1811.862 769.613c-.659-.722-1.76-1.915-1.767-3.114-.106-20.397-.092-40.794-.034-61.19.003-1.043.635-2.082 1.334-3.268.418 22.27.476 44.685.467 67.572m.006 61.997c-.66-.72-1.763-1.912-1.771-3.11-.113-17.069-.095-34.139-.032-51.209.003-1.037.65-2.071 1.365-3.24.413 18.94.458 38.013.438 57.56m.01 25.998c-.66-.535-1.794-1.557-1.763-2.544.131-4.3.6-8.589 1.313-13.017.414 4.94.463 10.015.45 15.561m-.01 249.006c-3.475-3.997-2.055-8.72-.438-13.567.41 4.276.457 8.687.438 13.567m-.001-20.975c-2.922-1.606-2.373-3.995-.405-6.606.388 1.976.43 4.068.405 6.605"/>
  <path fill="#dab3a0" d="M1812.273 615.917c.024-.105.305-.179.68-.096-.08.147-.251.137-.68.096"/>
  <path fill="#e0b3a1" d="M573.136 1218.391c.661.894 1.772 2.258 1.774 3.625.087 53.058.08 106.117.03 159.176 0 1.207-.644 2.414-1.352 3.76-.432-4.352-.56-8.84-.56-13.33.003-50.92.024-101.839.108-153.23m.005-401.005c.659.725 1.754 1.92 1.761 3.12.108 19.063.093 38.127.033 57.19-.003 1.04-.639 2.077-1.342 3.254-.415-20.938-.468-42.014-.452-63.564m.009 355.998c.498-.237 1.298.005 1.294.234-.117 6.732-.313 13.463-.86 20.33-.412-6.606-.459-13.35-.434-20.564m-.006-30.999c.647.216 1.74.923 1.716 1.589-.18 4.95-.58 9.894-1.276 14.976-.413-5.274-.462-10.684-.44-16.565m-.001-35.007c3.272 2.975 2.059 6.706.435 10.574-.408-3.282-.456-6.697-.435-10.574m.024 288.984c3.254 2.64 2.1 6.044.422 9.596-.401-2.956-.45-6.046-.422-9.596m-.012-487.998c3.138 2.296 2.086 5.37.416 8.593-.4-2.627-.444-5.382-.416-8.593m-.012 295.999c3.233 1.934 2.15 4.691.414 7.596-.394-2.3-.439-4.723-.414-7.596m.042 409.916c.497 1.162.916 2.714 1.059 4.49-.564-1.216-.85-2.658-1.06-4.49m-.04-592.953c.28.912.489 2.239.383 3.663-.36-1.018-.406-2.133-.383-3.663m.014 368.973c.274.61.475 1.615.379 2.71-.35-.712-.4-1.512-.38-2.71"/>
  <path fill="#a76b61" d="M190.164 810.353c.28.898.483 2.202.38 3.602-.357-1-.407-2.098-.38-3.602m.001 379c.284.897.491 2.2.393 3.602-.36-.999-.414-2.097-.393-3.602m-.003-359.023c.268.597.46 1.578.357 2.641-.342-.698-.387-1.477-.357-2.641m-.006 44.002c.27.595.466 1.576.367 2.64-.343-.697-.392-1.476-.367-2.64m-.006-12.036c.24.31.414.968.325 1.691-.305-.404-.348-.873-.325-1.691m.061 181.921c.405-.096.76.092 1.115.28a4.4 4.4 0 0 1-.851.529c-.244-.147-.279-.336-.264-.81"/>
  <path fill="#e0b3a1" d="M1782.988 548.697c-.31-.156-.647-.614-1.027-1.367.304.159.653.611 1.027 1.367m12.002 16.001q-.463-.255-.993-1.421.462.255.993 1.421m-14.132-18.851c-.173.04-.433-.165-.814-.588.161-.032.444.156.814.588m-2.013-1.985c-.177.042-.435-.165-.818-.59.162-.03.45.155.818.59m-2.008-1.996c-.224.104-.48-.1-.823-.574.161-.033.453.145.823.574m7.993 8.008c-.226.101-.48-.107-.815-.585.16-.03.45.15.815.585m6.022 7.99c-.177.026-.428-.196-.77-.655.171-.022.433.192.77.655m15.118 29.048c-.754-.55-1.372-1.389-1.995-2.578.707.53 1.42 1.41 1.995 2.578m-2.105-6.064c-.615-.18-1.212-.705-1.85-1.547.595.19 1.232.697 1.85 1.547"/>
  <path fill="#d1a796" d="M1572.013 1495.286c.176 5.003-4.142 6.497-7.192 8.688-7.586 5.45-16.693 6.148-25.56 6.953-17.304 1.57-34.644 2.739-51.975 3.984-10.905.783-21.827 1.328-32.731 2.114-12.37.89-24.792 1.467-37.062 3.133-5.064.687-9.794 2.107-15.07 1.03-3.1-.632-6.54.48-9.834.716-5.696.41-11.413.58-17.092 1.152-11.819 1.19-23.592 2.965-35.433 3.774-12.692.868-25.839 1.792-36.65-6.646-6.428-5.018-12.9-10.74-17.284-17.488-17.553-27.022-34.24-54.605-51.362-81.907-8.531-13.603-17.434-26.972-25.955-40.58-12.628-20.17-24.934-40.541-37.623-60.672-12.363-19.615-25.092-38.998-37.556-58.55-14.52-22.776-28.857-45.67-43.41-68.425-8.908-13.927-18.17-27.628-27.097-41.542-9.281-14.465-18.228-29.145-27.552-43.582-8.016-12.413-16.363-24.613-24.551-36.915a1068 1068 0 0 1-7.678-11.74c-1.544-2.274-2.783-4.017-4.194-6.082-.172-2.202-.172-4.083-.172-5.964 2.691 2.48 4.285 5.275 6.032 7.97 11.223 17.316 22.537 34.572 33.711 51.918 22.895 35.54 45.715 71.129 68.575 106.692 17.328 26.957 34.821 53.81 51.96 80.887 15.449 24.405 30.465 49.083 45.767 73.581 13.995 22.407 28.09 44.752 42.193 67.09 14.37 22.76 28.458 45.71 43.337 68.133 9.236 13.917 22.472 21.952 39.827 20.806 9.931-.657 19.791-2.327 29.714-3.193 16.89-1.473 33.796-2.751 50.707-3.966 21.223-1.525 42.458-2.88 63.685-4.354 9.625-.669 19.245-1.407 28.862-2.185 14.092-1.138 28.194-2.195 42.26-3.604 4.2-.42 8.325-1.788 12.43-2.923 7.241-2.004 11.11-7.842 15.279-13.416.392.722.538 1.285.684 1.847 0 0-.007-.024-.355.036-.778 1.116-1.206 2.173-1.635 3.23"/>
  <path fill="#daae9c" d="M796.036 775.063c2.132-13.393 10.949-21.156 22.686-25.955 10.24-4.186 21.292-4.38 32.174-5.106 15.54-1.036 31.083-2.01 46.622-3.063 8.92-.604 17.834-1.292 26.749-1.978 17.15-1.32 34.3-2.663 51.45-4.009.657-.051 1.346-.123 1.95-.36 6.685-2.622 13.606-1.732 20.528-1.75 4.006-.01 7.998-1.535 12.02-2.244a34.6 34.6 0 0 1 5.906-.52c11.42-.02 22.85-.213 34.255.218 3.219.122 6.353 2.18 9.548 3.287 9.734 3.377 16.322 10.345 21.714 18.767 10.52 16.435 21.181 32.781 31.654 49.247 11.72 18.424 23.212 36.995 34.97 55.394 6.138 9.603 12.77 18.89 18.944 28.47 11.038 17.129 21.836 34.412 32.847 51.558 14.767 22.996 29.73 45.865 44.438 68.898 9.71 15.206 19.034 30.658 28.689 45.9 7.257 11.456 14.928 22.65 22.125 34.143 11.835 18.898 23.329 38.01 35.183 56.895 4.92 7.837 10.397 15.323 15.983 23.33-.218 1.165-.8 1.969-1.666 2.782-.475.024-.665.038-1.112-.007-.467-.516-.676-.971-.846-1.813-1.962-3.286-3.965-6.186-5.917-9.094.05-.007-.023.062-.015-.254-.562-.814-1.133-1.313-1.863-1.973-.16-.162-.141-.615-.124-.962-.669-1.188-1.355-2.03-2.238-2.995-.465-.314-.629-.57-.681-1.214a10.9 10.9 0 0 0-1.754-2.749c-.22-.069-.415-.49-.45-.783-.307-.563-.577-.834-1.138-1.264a351 351 0 0 1-8.28-12.614c-23.356-37.38-46.554-74.859-70.09-112.125-16.663-26.385-33.814-52.461-50.682-78.718-22.927-35.69-45.758-71.44-68.693-107.125-17.33-26.967-34.754-53.874-52.148-80.8-4.727-7.318-9.993-13.824-18.628-17.172-13.054-5.06-26.52-4.057-39.868-3.21-20.207 1.283-40.357 3.467-60.537 5.203-15.224 1.31-30.447 2.658-45.688 3.739-21.89 1.552-43.816 2.636-65.69 4.376-16.034 1.275-32.218 2.699-44.477 15.652-.502.117-.735.235-.968.353.22.257.44.514.633 1.02-.161.347-.297.444-.7.686-.422.51-.576.873-.734 1.536-.198.638-.393.977-.873 1.37-.644 1.012-1.004 1.973-1.333 3.285-.123.793-.278 1.234-.719 1.724-1.243.708-2.2 1.366-3.156 2.024"/>
  <path fill="#f6c5b0" d="M1574.3 1491.81c-.443-.352-.59-.915-.995-2.005-.07-1.234.12-1.94.59-2.702.596-1.065.911-2.075 1.207-3.478.155-1.42.33-2.446.82-3.58.605-2.415.893-4.724 1.142-7.501-.016-100.376.005-200.284.035-300.192.011-40.46.042-80.92.336-121.688.357-1.797.513-3.286.513-4.774.003-96.038-.003-192.075-.05-288.113 0-1.587-.496-3.173-.82-5.226-.018-7.168.022-13.87.331-20.878.104-5.221 2.045-10.447-1.982-15.206-.148-1.764-.183-3.132.025-4.742.227-1.377.21-2.513.53-3.679.56-.042.784-.056 1.008-.07 4.263 15.656 2.934 31.676 2.892 47.578-.179 67.262-.539 134.523-.814 201.785-.048 11.695-.05 23.39.004 35.086.3 65.929.63 131.857.93 197.786.053 11.493-.108 22.988.042 34.479.177 13.624.696 27.244.858 40.868.153 12.75.033 25.505.034 38.257.003 36.24.119 72.48-.035 108.718-.083 19.62-.204 39.259-1.189 58.845-.342 6.81-3.334 13.485-5.413 20.432"/>
  <path fill="#daae9c" d="M809.021 1561.985c-12.243-5.392-15.763-16.16-15.886-28.02-.366-35.317-.092-70.64-.15-105.961-.328-197.723-.67-395.447-1.061-593.17-.014-7.127-1.118-14.278-.778-21.374.521-10.892 1.83-21.748 2.892-32.611.088-.9.839-1.736 1.894-2.768 1.034-.135 1.458-.104 1.963.314-.145 1.12-.373 1.855-.899 2.717-.59 2.696-.883 5.264-1.087 8.253-.094 1.822-.276 3.224-.8 4.779-.924 6.532-1.982 12.913-1.987 19.294-.01 12.955.825 25.91.833 38.867.073 125.949.041 251.898.108 377.847.001 1.951.878 3.902 1.499 6.251.049 1.797-.055 3.196-.487 4.744-.105 3.386.12 6.622.495 10.287.05 3.138-.053 5.848-.387 8.617-.077.692.079 1.325.387 2.402.25 40.855.361 81.267.434 121.678a585 585 0 0 1-.444 24.242c-.347.635-.505.956-.505 1.276-.02 42.109-.056 84.217.064 126.325.005 1.684 1.499 3.363 2.49 5.392.192 1.13.195 1.914-.034 2.93 1.137 2.732 2.506 5.232 4.105 7.97 1.262 1.372 2.294 2.505 3.346 3.956.745.637 1.47.955 2.495 1.253.773.301 1.246.623 1.657 1.387a82 82 0 0 0-.157 3.123"/>
  <path fill="#f3bca8" d="M999.324 1053.023c1.239 1.743 2.478 3.486 3.726 5.6-.01 97.594-.03 194.82-.045 292.045-.004 18.813.009 37.625-.385 56.822-.795-1.45-1.534-3.285-1.536-5.12-.078-53.89-.067-107.779-.165-161.667-.003-1.907-.972-3.81-1.61-6.172a11521 11521 0 0 1-.209-73.743c.003-12.29.13-24.58.401-36.999.067-.656-.067-1.183-.302-2.175-.026-23.173.05-45.882.125-68.59"/>
  <path fill="#d1a796" d="M999.428 1234.987c.519 1.905 1.488 3.81 1.491 5.716.098 53.888.087 107.777.165 161.666.002 1.836.741 3.67 1.54 5.593.403 4.75.401 9.412.017 14.609-1.877 3.037-3.158 5.516.383 7.462 0 7.326 0 14.652-.314 22.733-.103 6.275.107 11.795.317 17.315 0 17.31 0 34.621-.36 52.45-1.612 2.487-4.522 4.375-.65 6.59-.137 1.13-.274 2.26-.948 3.782-.718 1.005-.898 1.62-1.078 2.235-.245.413-.49.827-1.111 1.667-.548 1.06-.718 1.694-.889 2.328-2.079 1.939-4.158 3.877-6.97 5.843-1.527.014-2.32 0-2.998-.329 7.011-4.03 10.63-10.073 10.778-17.634.437-22.284.618-44.576.606-66.865-.03-59.924-.24-119.848-.312-179.772-.018-15.13.215-30.26.333-45.39"/>
  <path fill="#fad5c0" d="M1345.09 1168.958c.582-.804 1.163-1.608 1.704-2.72.013-30.302.088-60.297.113-90.291.034-40.33.03-80.66.06-121.796-.006-1.264-.03-1.72-.052-2.176.016-21.341.033-42.682.067-64.921-.006-2.622-.03-4.347-.054-6.072.01-1.057.02-2.113.048-4.028-.007-4.564-.033-8.27-.06-11.977.014-1.702.028-3.404.06-5.87-.002-1.218-.022-1.67-.041-2.123.007-14.677.014-29.353.04-44.952-.005-3.966-.028-7.01-.052-10.053.009-.74.018-1.478.048-3.055-.008-6.209-.037-11.58-.066-16.951.011-5.67.022-11.339.052-17.88a163 163 0 0 0-.07-4.13c.026-3.358.052-6.717.387-10.524.735-.392 1.161-.335 1.595.173-.279 77.679-.601 154.906-.837 232.133-.11 36.294-.061 72.588-.043 108.882 0 1.434.433 2.868.749 4.768-.02 26.143-.125 51.82-.51 77.412-1.233-1.34-2.185-2.594-3.138-3.85"/>
  <path fill="#d6b3a1" d="M1576.95 707.6c-.184.39-.408.404-1.218.439-1.1-.037-1.615-.096-2.28-.443-.147-.72-.142-1.152.015-1.687.01-.38-.134-.654-.39-1.128-.114-.2-.141-.66-.104-.957-.453-.836-.943-1.376-1.617-2.23-2.27-2.964-4.357-5.615-6.504-8.348-.06-.082-.394-.315-.82-.35-.949-.257-1.472-.478-2.114-1.006-1.288-.71-2.458-1.114-3.895-1.415-.821.006-1.376-.09-2.147-.527a275 275 0 0 0-20.211-1.542c-.894-.034-1.838 1.22-3.155 1.983-4.475.15-8.554.196-12.947.033-3.48.153-7.23-2.186-10.049 1.93-4.88.109-9.323.09-14.259-.055-4.126.413-8.338-2.147-11.714 2.012-4.83.16-9.261.208-14.017.058-3.74.461-7.156 1.12-10.965 1.895-5.21.102-10.027.089-15.333-.028-3.058-.131-5.627-.157-8.205-.519a120 120 0 0 1-.007-1.675c8.709-.374 17.418-.748 26.886-1.119 1.538-.296 2.316-.596 3.094-.896 5.36-.04 10.72-.08 16.84-.132 1.22-.324 1.681-.636 2.142-.949a617 617 0 0 1 3.894-.074c1.166-.279 1.646-.552 2.125-.826 5.735-.319 11.47-.637 18.054-1.01 3.549-.366 6.247-.679 8.945-.992 4.395-.353 8.79-.706 14.048-1.068 3.893-.317 6.922-.624 9.95-.93 2.705-.008 5.41-.014 8.853.254 3.198.412 5.657.548 8.116.685 6.846 3.548 13.974 6.784 17.104 14.648.724 1.82 1.236 3.727 1.885 5.97"/>
  <path fill="#daae9c" d="M1434.582 694.028c.431.459.43.905.207 1.935-1.422 1.1-2.62 1.617-4.268 2.255a315 315 0 0 1-14.294 0c-3.732.55-6.989 1.195-10.683 1.957-3.92.1-7.404.084-11.367-.008-4.05.575-7.62 1.226-11.578 1.989-2.249.102-4.109.092-6.342.014-2.009.582-3.644 1.232-5.618 2.046-1.052.392-1.766.621-2.746.832-.816.34-1.367.697-2.173 1.252-.627.411-.998.624-1.665.896-.554.357-.81.655-1.173 1.141-.278.44-.514.595-1.047.74-.536.262-.734.52-.996 1.158-1.643 2.113-3.12 3.924-4.83 5.824-.508.662-.781 1.236-1.101 2.208-.25 1.164-.453 1.93-.911 2.77-.593 1.011-.93 1.946-1.234 3.296-.157 1.489-.347 2.563-.804 3.758-.584 1.69-.903 3.26-1.147 5.294-.136 4.839-.346 9.213-.811 13.693-.55.765-.844 1.424-1.14 2.082-.426-.056-.852-.113-1.601-.18-.212-3.454-.157-6.902.038-10.34.092-1.607.457-3.198.703-5.636l.024-4.959c1.018-2.872 1.928-5.787 3.072-8.608 5.007-12.35 14.628-18.576 27.463-20.33 4.076-.558 8.204-.738 12.306-1.113 14.429-1.321 28.857-2.652 43.716-3.966"/>
  <path fill="#d1a796" d="M809.38 1561.993c-.327-.901-.295-1.794.171-2.935 5.903.579 11.354 1.909 16.843 2.091 5.522.183 11.082-.775 16.415-.948-2.078 1.452-3.946 2.62-5.814 3.787-3.007.01-6.015.02-9.71-.247-2.245-.091-3.802.095-5.359.282-2.357-.303-4.714-.606-7.476-1.297-.58-.937-.755-1.485-.93-2.033l-1.627 1.338c-.718-.01-1.436-.02-2.513-.038m58.623-.023c-5 .015-10 .031-15.712-.235-2.266-.868-3.82-1.454-4.987-2.178 8.496-.642 16.607-1.147 24.498-1.365a197 197 0 0 1-3.799 3.777m95.965-7.967c-.732 0-1.464 0-2.825-.289-2.813-.813-4.996-1.339-6.816-1.997 11.242-1.61 22.4-1.597 32.59-5.88-5.184 1.921-10.283 3.477-15.334 5.174-2.582.867-5.08 1.987-7.615 2.992"/>
  <path fill="#daae9c" d="M964.414 1554.007c2.09-1.01 4.587-2.13 7.169-2.997 5.051-1.697 10.15-3.253 15.515-5.38.461-.565.636-.617.81-.669.793.014 1.586.029 2.777.058-3.006 2.293-6.132 5.456-9.881 6.631-5.064 1.587-10.607 1.647-16.39 2.357"/>
  <path fill="#d1a796" d="M916.983 1558c-3.994.007-7.989.015-12.624-.24-1.235-.845-1.83-1.43-2.045-2.146 7.155-.65 13.93-1.17 20.473-1.404-2.089 1.454-3.946 2.622-5.804 3.79m26-2c-2.352.003-4.704.006-7.763-.286-2.897-.84-5.086-1.383-6.897-2.06 7.818-.668 15.257-1.204 22.452-1.447-2.76 1.46-5.276 2.626-7.792 3.793m-50.985 3.985c-3.67.012-7.338.024-11.674-.23-1.579-.86-2.49-1.453-3.023-2.18 6.49-.63 12.6-1.126 18.485-1.341a227 227 0 0 1-3.788 3.751"/>
  <path fill="#daae9c" d="M927.945 1553.787c2.19.544 4.378 1.088 6.835 1.918-5.449.957-11.165 1.628-17.339 2.297 1.4-1.17 3.257-2.338 5.744-3.912 2.006-.371 3.383-.337 4.76-.303m15.492 2.216c2.062-1.17 4.578-2.337 7.696-3.908 1.345-.351 2.087-.3 2.83-.247 2.184.526 4.367 1.052 6.815 1.864-5.452.956-11.17 1.625-17.34 2.29m-96.52 3.692c1.554.587 3.107 1.173 4.91 2.042-4.473.941-9.197 1.6-14.377 2.255 1.412-1.17 3.28-2.338 5.733-3.921 1.634-.402 2.684-.389 3.734-.376m45.518.294c.75-1.16 1.937-2.316 3.757-3.888 2.334-.395 4.037-.375 5.74-.355.595.585 1.19 1.17 1.97 2.018-3.555.92-7.292 1.574-11.467 2.225m-15.515-2.279c.912.593 1.824 1.186 2.947 2.049-3.522.92-7.256 1.573-11.427 2.218.755-1.17 1.948-2.333 3.753-3.917 1.984-.397 3.356-.374 4.727-.35m469.606-775.619c.407 5.254.436 10.625.427 16.465-.564.126-1.557-.232-1.547-.556.172-5.267.472-10.529 1.12-15.909m.013 82.999c.403 3.595.43 7.301.42 11.47-3.561-3.269-2.185-7.314-.42-11.47"/>
  <path fill="#cfa493" d="M1540.715 685.747c-2.751.603-5.78.91-9.252 1.194 2.186-3.79 5.768-1.433 9.252-1.194"/>
  <path fill="#daae9c" d="M1346.55 802.087c.397 2.936.42 5.98.407 9.478-3.48-2.578-2.224-5.967-.406-9.478"/>
  <path fill="#cfa493" d="M1516.722 687.749c-2.426.606-5.124.92-8.257 1.222 1.802-3.7 5.073-1.605 8.257-1.222"/>
  <path fill="#f3bca8" d="M1003.025 1469.605c-.208-5.044-.418-10.564-.315-16.374.313 5.107.313 10.502.315 16.374"/>
  <path fill="#cfa493" d="M1557.89 686.607c-2.388.24-4.847.103-7.595-.302a30.7 30.7 0 0 1 7.594.302"/>
  <path fill="#f3bca8" d="M1002.281 1528.826c-4.136-1.92-1.226-3.808.389-5.837.198 1.807.037 3.674-.389 5.837m.738-99.236c-3.536-1.503-2.255-3.982-.378-6.556.38 1.992.376 4.053.378 6.557"/>
  <path fill="#d1a796" d="M797.813 778.008c-.423-.031-.847-.062-1.583-.161-.292-.747-.27-1.426-.222-2.444.984-.998 1.94-1.656 3.175-2.035-.271 1.733-.82 3.186-1.37 4.64"/>
  <path fill="#daae9c" d="M1346.576 881.073c.376 1.634.4 3.359.39 5.514-3.198-1.167-2.297-3.255-.39-5.514M822.177 1564.28c1.306-.444 2.863-.63 4.658-.537-1.31.45-2.858.622-4.658.536m524.386-804.231c.354 1.001.384 2.088.372 3.58a10.4 10.4 0 0 1-.372-3.58"/>
  <path fill="#cfa493" d="M1464.804 691.772c-.588.553-1.366.853-2.476 1.11.54-.483 1.413-.923 2.476-1.11"/>
  <path fill="#f6c5b0" d="M1572.298 1495.095c.144-.866.572-1.923 1.362-3.037-.119.91-.598 1.878-1.362 3.037"/>
  <path fill="#cfa493" d="M1347.751 728.263c.268 1.155.26 2.527.251 4.312-.177-1.09-.351-2.592-.251-4.312"/>
  <path fill="#daae9c" d="M812.096 1562.272c.34-.688.882-1.133 1.424-1.58.175.549.35 1.097.55 1.943-.575.158-1.172.018-1.974-.363"/>
  <path fill="#cfa493" d="M1489.84 689.817c-.324.5-.804.774-1.572 1.006.28-.439.848-.836 1.572-1.006"/>
  <path fill="#daae9c" d="M1346.652 857.034c.302.403.322.855.308 1.647-.518.013-1.004-.313-1.49-.64.3-.319.6-.638 1.182-1.007m-.017 94.995c.303.402.326.858.314 1.655-.517.014-.998-.314-1.479-.641.295-.32.59-.64 1.165-1.014"/>
  <path fill="#cfa493" d="M1483.81 690.73c-.295.527-.756.84-1.51 1.121.252-.465.798-.9 1.51-1.121"/>
  <path fill="#f3bca8" d="M1000.234 1534.936c-.063-.413.117-1.028.589-1.797.078.43-.134 1.012-.59 1.797m-1.987 3.981q-.128-.628.518-1.9.127.627-.518 1.9"/>
  <path fill="#010101" d="M797.895 778.395c.467-1.841 1.017-3.294 1.575-5.077.163-.77.318-1.21.651-2.211.59-1.418.999-2.274 1.408-3.13.195-.34.39-.68.856-1.464.426-.808.58-1.17.734-1.533.135-.098.27-.195.609-.677.356-.648.431-.933.427-1.238 11.99-12.953 28.174-14.377 44.207-15.652 21.875-1.74 43.8-2.824 65.691-4.376 15.241-1.08 30.464-2.429 45.688-3.739 20.18-1.736 40.33-3.92 60.537-5.203 13.349-.847 26.814-1.85 39.868 3.21 8.635 3.348 13.901 9.854 18.628 17.171 17.394 26.927 34.817 53.834 52.148 80.8 22.935 35.686 45.766 71.437 68.693 107.126 16.868 26.257 34.02 52.333 50.683 78.718 23.535 37.266 46.733 74.746 70.09 112.125 2.613 4.182 5.324 8.304 8.301 12.916.591.726.871.99 1.151 1.256 0 0 .194.42.435.79.736 1.17 1.232 1.969 1.727 2.769.06.323.223.58.702 1.225a46 46 0 0 0 2.207 3.01s-.018.453.138.906c.724.967 1.29 1.483 1.858 1.998 0 0 .073-.07.036.301 1.93 3.286 3.897 6.202 5.864 9.117.21.456.42.911.979 1.77 1.448 2.396 2.546 4.39 3.643 6.384l.955-.293.125-2.502c.104-25.677.209-51.354.439-77.837.443-24.613.967-48.42 1.041-72.228.248-80.137.348-160.275.473-240.412.018-11.815-.134-23.63-.207-35.444.21-4.373.421-8.747.747-13.86.484-2.205.854-3.673 1.223-5.14.19-1.075.38-2.15.77-3.825.553-1.462.905-2.323 1.257-3.183.203-.766.406-1.532.915-2.77.563-1.055.82-1.64 1.077-2.223 1.476-1.811 2.952-3.622 4.862-5.767.61-.626.787-.918.964-1.21.298-.06.534-.216 1.123-.694.663-.54.91-.85 1.158-1.162.37-.213.742-.426 1.635-.75 1.072-.513 1.622-.917 2.172-1.321a26 26 0 0 1 2.81-.756c2.333-.737 3.998-1.405 5.663-2.072 1.86.01 3.72.02 6.311.043 4.392-.67 8.053-1.354 11.714-2.037 3.484.015 6.967.03 11.219.06 4.121-.654 7.474-1.322 10.827-1.99 4.457.008 8.914.016 14.172.03 4.814-.664 8.828-1.335 12.841-2.006 4.817.013 9.633.026 15.194.057 4.143-.599 7.54-1.214 10.939-1.83 4.432-.048 8.863-.096 14.045-.122 4.452-.66 8.153-1.34 11.855-2.021 4.443.02 8.887.039 14.174.052 3.88-.619 6.918-1.23 9.955-1.843 4.08-.046 8.158-.092 13.003-.111 8.249-.06 15.731-.146 23.213-.231.554.096 1.109.192 2.172.393a59 59 0 0 1 3.773 1.516c.522.22 1.045.44 1.96.849.392.188.625.39.625.39l.289-.109c2.087 2.651 4.174 5.302 6.38 8.556.626 1.147 1.135 1.692 1.644 2.236 0 0 .027.46.083.93.136.633.216.798.296.963-.005.431-.01.862.034 1.896.652 1.755 1.256 2.906 1.86 4.057.035 1.369.07 2.737.064 4.918.596 5.573 1.232 10.334 1.868 15.095-.04 6.702-.081 13.404-.26 20.925-.501 13.972-1.203 27.124-1.174 40.275.173 78.804.498 157.608.823 236.412.03 7.128.413 14.255.632 21.382-.021 40.46-.052 80.92-.063 121.38-.03 99.907-.05 199.815-.25 300.483-.531 2.946-.887 5.131-1.243 7.316a43 43 0 0 1-.758 3.672c-.566 1.507-.9 2.42-1.233 3.334-.19.706-.38 1.413-.556 2.487-3.909 6.102-7.778 11.94-15.02 13.944-4.104 1.135-8.23 2.503-12.43 2.923-14.065 1.41-28.167 2.466-42.26 3.604a2555 2555 0 0 1-28.86 2.185c-21.228 1.474-42.463 2.83-63.686 4.354-16.91 1.215-33.818 2.493-50.707 3.966-9.923.866-19.783 2.536-29.714 3.193-17.355 1.146-30.59-6.889-39.827-20.806-14.88-22.423-28.967-45.373-43.337-68.133-14.104-22.338-28.198-44.683-42.193-67.09-15.302-24.498-30.318-49.176-45.767-73.581-17.139-27.077-34.632-53.93-51.96-80.887-22.86-35.563-45.68-71.152-68.575-106.692-11.174-17.346-22.488-34.602-33.71-51.917-1.748-2.696-3.342-5.49-6.033-7.97 0 1.88 0 3.76.172 5.963.096 23.031.02 45.74-.114 69.056.047 1.124.154 1.642.262 2.16-.07 12.29-.197 24.58-.2 36.871-.006 24.43.056 48.859.209 73.743.001 15.586-.232 30.715-.214 45.845.072 59.924.283 119.848.312 179.772.012 22.29-.169 44.581-.606 66.865-.149 7.561-3.767 13.605-10.778 17.634-.29.366-.464.418-.82.675-10.476 4.797-21.634 4.783-32.876 6.394-1.107.08-1.849.028-2.949.087-7.798.647-15.237 1.183-23.055 1.851-1.755.099-3.132.065-4.908.15-7.172.64-13.946 1.16-21.101 1.81-2.084.111-3.787.09-5.896.204-6.517.631-12.628 1.128-19.117 1.758-1.751.11-3.123.086-4.886.196-8.504.638-16.615 1.143-25.111 1.785-1.436.124-2.486.11-3.91.228-5.918.59-11.478 1.547-17 1.364-5.49-.182-10.94-1.512-16.781-2.534-.846-.517-1.319-.839-2.248-1.377a66 66 0 0 1-2.359-1.335c-1.032-1.132-2.064-2.265-3.332-3.97a626 626 0 0 0-3.867-7.87 40 40 0 0 0-.113-3.107c-.567-4.193-1.419-7.628-1.43-11.066-.103-34.134-.048-68.268-.087-102.403-.008-6.476-.231-12.952-.355-19.428.064-7.976.196-15.952.182-23.928-.073-40.411-.184-80.823-.278-122.003-.102-1.224-.206-1.68-.31-2.137.101-2.71.203-5.419.319-8.986a787 787 0 0 0-.331-10.006c.103-1.4.207-2.799.324-5.037.039-2.504.085-4.17.085-5.834-.045-119.752-.082-239.504-.149-359.256-.014-25.626-.139-51.253-.212-76.88.181-1.403.363-2.805.601-4.96.45-3.184.846-5.616 1.24-8.048.229-.734.457-1.468.602-2.59"/>
  <path fill="#cfa493" d="M1342.847 1167.147c-2.007-2.53-3.974-5.445-5.954-8.723 1.99 2.537 3.992 5.437 5.954 8.723m5.381 5.66c.24.919.198 1.753.156 2.587l-.955.293c-1.097-1.994-2.195-3.988-3.386-6.325.097-.357.287-.371.762-.395 1.238 1.246 2.19 2.5 3.423 3.84"/>
  <path fill="#d1a796" d="M801.244 768.03c-.124.803-.534 1.66-1.154 2.724.15-.751.51-1.712 1.154-2.725"/>
  <path fill="#cfa493" d="M1332.009 1150.655c-.502-.48-.998-1.279-1.513-2.379.494.486 1.007 1.272 1.513 2.379m2.919 4.209c-.683-.505-1.348-1.356-2.027-2.539.672.51 1.358 1.35 2.027 2.539m1.987 2.936c-.575-.2-1.142-.716-1.706-1.522.573.208 1.144.707 1.706 1.521"/>
  <path fill="#d1a796" d="M803.886 763.065c.273.305.198.59-.132.989-.396-.122-.616-.38-.836-.636.233-.118.466-.236.968-.353m-1.036 2.059q.172.327-.461 1.09-.171-.325.462-1.09"/>
  <path fill="#cfa493" d="M1329.805 1147.123c-.245.029-.525-.236-.826-.802.249-.032.52.239.826.802"/>
  <path fill="#b39284" d="M1577.435 1050.664c-.492-6.818-.876-13.945-.905-21.073-.325-78.804-.65-157.608-.823-236.412-.029-13.15.673-26.303 1.234-39.809.461 1.234.957 2.82.957 4.407.047 96.038.053 192.075.05 288.113 0 1.488-.156 2.977-.513 4.774m-.025-318.991c-.905-4.455-1.541-9.216-2.024-14.394 4.068 3.947 2.127 9.173 2.023 14.394m-1.486 748.373c.04-2.079.395-4.264.965-6.742a33 33 0 0 1-.965 6.742m-.471-768.321c-.847-.91-1.451-2.061-1.952-3.526.617-.256 1.131-.197 1.896-.131.267 1.144.283 2.28.056 3.657m-1.556 775.378c.052-.859.386-1.772.972-2.886-.062.81-.377 1.82-.972 2.886"/>
  <path fill="#d1a796" d="M795.109 794.144c.416 25.475.54 51.102.555 76.728.067 119.752.104 239.504.149 359.256 0 1.665-.046 3.33-.238 5.436-.634-1.51-1.51-3.46-1.512-5.412-.067-125.95-.035-251.898-.108-377.847-.008-12.956-.842-25.912-.833-38.867.005-6.381 1.063-12.762 1.987-19.294m.451 614.229c.386 6.162.61 12.638.617 19.114.04 34.135-.016 68.27.088 102.403.01 3.438.862 6.873 1.238 10.72-.885-1.273-2.379-2.952-2.384-4.636-.12-42.108-.084-84.216-.064-126.325 0-.32.158-.64.505-1.276m-.485-167.226c.444 2.901.559 5.95.509 9.43a56.7 56.7 0 0 1-.509-9.43m1.921-460.035c-.097 2.304-.492 4.736-1.031 7.5.148-2.236.44-4.804 1.031-7.5m.579 763.184c1.442 2.2 2.652 4.631 3.869 7.398-1.363-2.166-2.732-4.666-3.869-7.398m7.451 11.926c.614.054 1.248.427 2.038 1.037-.568-.082-1.293-.4-2.038-1.037m-9.843-296.172c.337.398.441.854.39 1.635-.311-.309-.467-.942-.39-1.634m204.318-136.261c-.309-.391-.416-.909-.362-1.57.295.386.43.913.362 1.57"/>
  <path fill="#cfa493" d="M1350 747.078c.328 11.708.48 23.522.462 35.337-.125 80.137-.225 160.275-.473 240.412-.074 23.808-.598 47.615-1.126 71.762-.44-1.094-.873-2.528-.874-3.962-.018-36.294-.067-72.588.043-108.882.236-77.227.558-154.454.837-232.133.288-1.11.583-1.769 1.132-2.534m205.875-57.13c-7.265.426-14.747.512-22.6.467.551-.789 1.495-2.043 2.389-2.009 6.67.258 13.33.77 20.211 1.542m-60.621 2.349c-3.209.805-6.91 1.486-10.964 2.033 2.626-4.18 6.838-1.62 10.964-2.033m-25.731 2.07c-3.074.814-6.472 1.43-10.221 1.913 3.065-.792 6.48-1.452 10.22-1.913m-26.297 1.867c-3.524.775-7.538 1.446-11.904 1.99.846-.644 2.045-1.16 3.476-1.926 2.801-.221 5.37-.195 8.428-.064m76.337-5.812c-2.723.821-5.76 1.433-9.205 1.924 1.974-4.11 5.725-1.771 9.205-1.924m42.355 1.468c-.968-.163-2.055-.633-3.385-1.31.927.196 2.097.6 3.385 1.31"/>
  <path fill="#b39284" d="M1572.973 703.824c-.546-.248-1.055-.793-1.498-1.627.555.25 1.045.791 1.498 1.627"/>
  <path fill="#cfa493" d="M1564.852 693.246c.06.082-.23.192-.23.192s-.232-.203-.198-.355.368.08.428.163"/>
  <path fill="#b39284" d="M1573.467 705.909c-.232-.06-.312-.226-.335-.66.201.006.344.28.335.66"/>
  <path fill="#cfa493" d="M1394.177 700.167c-3.182.76-6.843 1.443-10.847 2.002 3.227-.776 6.798-1.427 10.847-2.002m22.05-1.95c-2.878.765-6.23 1.433-9.915 1.972 2.926-.776 6.183-1.422 9.915-1.972m-64.267 29.874c-.104 1.347-.474 2.815-1.033 4.556.129-1.297.448-2.866 1.032-4.556m24.298-25.921c-1.291.735-2.956 1.403-4.95 1.976 1.306-.744 2.941-1.394 4.95-1.976m-22.26 18.868c-.097.785-.45 1.646-1.035 2.693.105-.748.442-1.683 1.035-2.693m2.012-4.979c-.022.495-.279 1.079-.795 1.737.014-.5.287-1.075.795-1.737m11.884-11.011c-.285.422-.835.826-1.651 1.142.284-.445.835-.802 1.651-1.142m-3.838 2.148c.048.252-.2.564-.758.914-.053-.26.204-.557.758-.914m-2.22 1.881c.058.208-.119.5-.562.824-.172-.304.026-.562.562-.824"/>
</svg>